<svg width="149px" height="44px" viewBox="0 0 1256 372" version="1.1" xmlns="http://www.w3.org/2000/svg" xmlns:xlink="http://www.w3.org/1999/xlink" xml:space="preserve" xmlns:serif="http://www.serif.com/" style="fill-rule:evenodd;clip-rule:evenodd;stroke-linejoin:round;stroke-miterlimit:2;">
    <g transform="matrix(1,0,0,1,-1368.897797,-340.56609)">
        <g transform="matrix(1,0,0,1.592738,1182,0)">
            <g id="full-light" serif:id="full light" transform="matrix(1,0,0,0.62785,0,0)">
                <g id="f-curve" serif:id="f curve" transform="matrix(2.457117,0,0,2.457117,352.620056,508.487005)">
                    <path d="M-14.894,80.608C-18.736,79.542 -22.469,78.133 -26,76.4C-42.3,68.3 -54.3,53.3 -60.8,37.4C-67.2,21.5 -68.1,4.6 -67.1,-13.7C-66.1,-32 -63.1,-51.8 -51.6,-61.1C-40.399,-70.159 -21.038,-69.16 -3.776,-66.422C-4.477,-65.895 -5.153,-65.324 -5.805,-64.708C-8.613,-62.196 -10.83,-59.055 -12.456,-55.286C-14.082,-51.517 -14.894,-46.899 -14.894,-41.43L-14.894,-26.134L-25.979,-26.134L-25.979,-8.398L-14.894,-8.398L-14.894,80.608ZM24.567,-59.306C30.994,-56.793 36.81,-53.617 41.9,-49.5C53.4,-40.2 61.3,-26.2 64.5,-11C67.6,4.2 66,20.7 59.7,37.2C53.4,53.6 42.5,70.1 26.7,77.8C20.873,80.64 14.394,82.282 7.718,82.824L7.718,-8.398L24.567,-8.398L24.567,-26.134L7.718,-26.134L7.718,-42.539C7.718,-47.712 9.935,-50.298 14.369,-50.298L24.567,-50.298L24.567,-59.306Z" style="fill:rgb(138,63,252);"/>
                </g>
                <g transform="matrix(0.69431,0.002869,-0.002869,0.69431,14.998599,-889.397112)">
                    <path d="M812.618,2171.613C828.246,2171.613 839.149,2162.346 839.149,2143.992L839.149,2012.974L860.228,2012.974C871.313,2012.974 879.672,2005.887 879.672,1993.348C879.672,1980.992 871.313,1973.905 860.228,1973.905L837.877,1973.905L837.877,1961.548C837.877,1947.192 844.419,1940.65 860.773,1940.105C864.771,1939.923 868.042,1939.378 870.949,1938.651C878.036,1936.471 881.671,1932.11 881.671,1924.659C881.671,1912.121 869.859,1903.217 841.693,1903.217C804.986,1903.58 786.087,1920.661 786.087,1959.186L786.087,1973.905L775.911,1973.905C764.826,1973.905 756.467,1980.992 756.467,1993.348C756.467,2005.887 764.826,2012.974 775.911,2012.974L786.087,2012.974L786.087,2143.992C786.087,2162.346 796.809,2171.613 812.618,2171.613Z" style="fill:rgb(138,63,252);fill-rule:nonzero;"/>
                    <path d="M931.825,1948.828C947.816,1948.828 960.173,1936.653 960.173,1921.388C960.173,1905.942 947.816,1893.949 931.825,1893.949C915.834,1893.949 903.477,1905.942 903.477,1921.388C903.477,1936.653 915.834,1948.828 931.825,1948.828ZM931.825,2171.613C948.179,2171.613 958.356,2161.255 958.356,2143.992L958.356,1996.801C958.356,1979.538 948.179,1968.998 931.825,1968.998C915.289,1968.998 905.294,1979.538 905.294,1996.801L905.294,2143.992C905.294,2161.255 915.289,2171.613 931.825,2171.613Z" style="fill:rgb(138,63,252);fill-rule:nonzero;"/>
                    <path d="M1020.14,2171.613C1035.767,2171.613 1046.67,2162.164 1046.67,2143.992L1046.67,2056.041C1046.67,2030.782 1061.753,2013.337 1085.558,2013.337C1109.363,2013.337 1121.356,2027.875 1121.356,2053.315L1121.356,2143.992C1121.356,2162.164 1132.259,2171.613 1147.887,2171.613C1163.333,2171.613 1174.418,2162.164 1174.418,2143.992L1174.418,2042.23C1174.418,1996.619 1150.068,1969.362 1106.819,1969.362C1076.835,1969.362 1057.21,1982.627 1046.852,2006.796L1045.762,2006.796L1045.762,1995.892C1045.762,1979.174 1035.222,1968.998 1019.231,1968.998C1003.24,1968.998 993.609,1979.174 993.609,1995.711L993.609,2143.992C993.609,2162.164 1004.694,2171.613 1020.14,2171.613Z" style="fill:rgb(138,63,252);fill-rule:nonzero;"/>
                    <path d="M1272.545,2171.613C1291.444,2171.613 1301.983,2163.073 1306.526,2143.811L1335.965,2030.055L1337.055,2030.055L1366.675,2143.447C1371.218,2163.254 1381.576,2171.613 1401.02,2171.613C1419.373,2171.613 1429.549,2162.891 1435.001,2143.629L1474.252,2007.704C1476.251,2000.799 1477.159,1996.438 1477.159,1991.531C1477.159,1978.266 1466.801,1968.998 1452.082,1968.998C1438.999,1968.998 1430.458,1976.994 1427.55,1991.168L1398.476,2117.462L1397.385,2117.462L1367.038,1993.348C1363.586,1977.539 1353.228,1968.998 1337.418,1968.998C1321.246,1968.998 1310.888,1977.539 1307.435,1993.348L1277.27,2117.462L1276.18,2117.462L1247.287,1991.531C1244.197,1976.994 1235.657,1968.998 1222.391,1968.998C1207.49,1968.998 1196.769,1978.448 1196.769,1991.713C1196.769,1996.801 1197.678,2001.162 1199.677,2008.068L1238.927,2143.811C1244.561,2163.073 1254.192,2171.613 1272.545,2171.613Z" style="fill:rgb(138,63,252);fill-rule:nonzero;"/>
                    <path d="M1556.025,2170.886C1580.375,2170.886 1604.725,2158.711 1615.628,2137.996L1616.718,2137.996L1616.718,2147.99C1617.809,2163.618 1627.803,2171.613 1642.159,2171.613C1657.241,2171.613 1667.963,2162.527 1667.963,2144.901L1667.963,2033.871C1667.963,1994.62 1635.435,1968.817 1585.463,1968.817C1545.122,1968.817 1513.866,1983.172 1504.78,2006.432C1502.963,2010.43 1502.055,2014.246 1502.055,2018.425C1502.055,2030.419 1511.322,2038.778 1524.224,2038.778C1532.765,2038.778 1539.488,2035.507 1545.303,2028.965C1557.115,2013.701 1566.928,2008.431 1583.101,2008.431C1603.089,2008.431 1615.81,2018.971 1615.81,2037.142L1615.81,2050.044L1566.746,2052.952C1518.046,2055.859 1490.788,2076.393 1490.788,2111.828C1490.788,2146.9 1518.954,2170.886 1556.025,2170.886ZM1573.47,2132.544C1555.661,2132.544 1543.668,2123.458 1543.668,2108.921C1543.668,2095.11 1554.934,2086.206 1574.742,2084.752L1615.81,2082.208L1615.81,2096.382C1615.81,2117.462 1596.729,2132.544 1573.47,2132.544Z" style="fill:rgb(138,63,252);fill-rule:nonzero;"/>
                    <path d="M1720.297,2167.797L1839.867,2167.797C1853.315,2167.797 1861.31,2160.347 1861.31,2147.445C1861.31,2134.543 1853.315,2127.093 1839.867,2127.093L1765,2127.093L1765,2126.184L1847.863,2017.699C1854.041,2009.885 1856.404,2003.888 1856.404,1996.256C1856.404,1981.9 1846.773,1972.996 1831.145,1972.996L1717.753,1972.996C1704.124,1972.996 1696.311,1980.446 1696.311,1993.167C1696.311,2006.069 1704.306,2013.519 1717.753,2013.519L1794.62,2013.519L1794.62,2014.609L1704.851,2128.365C1699.4,2134.906 1697.401,2139.813 1697.401,2146.718C1697.401,2159.438 1706.305,2167.797 1720.297,2167.797Z" style="fill:rgb(138,63,252);fill-rule:nonzero;"/>
                    <path d="M1975.247,2171.977C2012.863,2171.977 2043.028,2157.803 2055.93,2133.816C2058.292,2129.455 2059.564,2125.094 2059.564,2120.914C2059.564,2108.739 2050.296,2101.47 2038.848,2101.47C2031.943,2101.47 2027.218,2103.469 2021.585,2109.284C2007.229,2126.184 1994.509,2132.726 1975.065,2132.726C1948.171,2132.726 1930.726,2113.827 1930.726,2084.934L1930.726,2082.572L2041.937,2082.572C2056.657,2082.572 2065.016,2074.213 2065.016,2059.494C2065.016,2006.614 2027.945,1968.817 1972.703,1968.817C1915.099,1968.817 1878.573,2008.613 1878.573,2071.305C1878.573,2134.361 1914.372,2171.977 1975.247,2171.977ZM1931.271,2050.044C1933.089,2025.149 1949.988,2008.068 1973.248,2008.068C1996.508,2008.068 2012.863,2024.604 2013.953,2050.044L1931.271,2050.044Z" style="fill:rgb(138,63,252);fill-rule:nonzero;"/>
                </g>
            </g>
        </g>
    </g>
</svg>
