<svg width="152px" height="44px" viewBox="0 0 1257 372" version="1.1" xmlns="http://www.w3.org/2000/svg" xmlns:xlink="http://www.w3.org/1999/xlink" xml:space="preserve" xmlns:serif="http://www.serif.com/" style="fill-rule:evenodd;clip-rule:evenodd;stroke-linejoin:round;stroke-miterlimit:2;">
    <g transform="matrix(1,0,0,1,-1368.897797,-340.56609)">
        <g transform="matrix(1,0,0,1.592738,1182,0)">
            <g id="full-light" serif:id="full light" transform="matrix(1,0,0,0.62785,0,0)">
                <g id="f-curve" serif:id="f curve" transform="matrix(2.457117,0,0,2.457117,352.620056,508.487005)">
                    <path d="M-14.894,80.608C-18.736,79.542 -22.469,78.133 -26,76.4C-42.3,68.3 -54.3,53.3 -60.8,37.4C-67.2,21.5 -68.1,4.6 -67.1,-13.7C-66.1,-32 -63.1,-51.8 -51.6,-61.1C-40.399,-70.159 -21.038,-69.16 -3.776,-66.422C-4.477,-65.895 -5.153,-65.324 -5.805,-64.708C-8.613,-62.196 -10.83,-59.055 -12.456,-55.286C-14.082,-51.517 -14.894,-46.899 -14.894,-41.43L-14.894,-26.134L-25.979,-26.134L-25.979,-8.398L-14.894,-8.398L-14.894,80.608ZM24.567,-59.306C30.994,-56.793 36.81,-53.617 41.9,-49.5C53.4,-40.2 61.3,-26.2 64.5,-11C67.6,4.2 66,20.7 59.7,37.2C53.4,53.6 42.5,70.1 26.7,77.8C20.873,80.64 14.394,82.282 7.718,82.824L7.718,-8.398L24.567,-8.398L24.567,-26.134L7.718,-26.134L7.718,-42.539C7.718,-47.712 9.935,-50.298 14.369,-50.298L24.567,-50.298L24.567,-59.306Z" style="fill:rgb(138,63,252);"/>
                </g>
                <g transform="matrix(0.69431,0.002869,-0.002869,0.69431,14.998599,-889.397112)">
                    <g transform="matrix(372.157567,0,0,372.157567,2075.009998,2167.7973)">
                    </g>
                    <text x="754.65px" y="2167.797px" style="font-family:'SFProRounded-Bold', 'SF Pro Rounded';font-weight:700;font-size:372.158px;fill:rgb(138,63,252);">fin<tspan x="1189.864px 1481.157px 1683.954px 1868.397px " y="2167.797px 2167.797px 2167.797px 2167.797px ">waze</tspan></text>
                </g>
            </g>
        </g>
    </g>
</svg>
