<svg width="100%" height="100%" viewBox="0 0 74 75" version="1.1" xmlns="http://www.w3.org/2000/svg" xmlns:xlink="http://www.w3.org/1999/xlink" xml:space="preserve" xmlns:serif="http://www.serif.com/" style="fill-rule:evenodd;clip-rule:evenodd;stroke-linejoin:round;stroke-miterlimit:2;">
    <g transform="matrix(1,0,0,1,-138.379774,-28.314062)">
        <path d="M146.113,38.081C140.088,43.572 137.618,52.022 139.837,59.866C140.304,61.517 140.557,63.502 140.25,65.725C139.347,72.278 137.576,78.473 138.793,88.758C139.864,97.806 145.914,101.965 154.088,102.416C162.261,102.867 194.308,103.206 198.321,102.416C202.333,101.626 206.284,95.855 206.735,89.936C207.187,84.017 202.449,78.599 200.19,76.229C197.931,73.858 195.55,70.359 198.321,67.537C201.091,64.715 208.94,58.62 206.765,48.009C204.591,37.399 198.192,33.448 190.894,33.561C183.595,33.674 178.26,39.611 172.351,39.483C166.443,39.355 155.599,29.836 147.134,37.173C146.782,37.479 146.441,37.781 146.113,38.081Z" style="fill:rgb(237,211,254);fill-rule:nonzero;"/>
        <path d="M146.562,48.796C146.562,48.796 146.472,52.771 145.225,54.016C144.114,55.127 143.237,55.127 143.237,55.127C143.237,55.127 145.036,55.751 145.908,56.788C146.78,57.825 146.735,61.105 146.735,61.105C146.735,61.105 146.78,57.335 147.816,56.244C148.852,55.154 150.012,54.823 150.012,54.823C150.012,54.823 148.409,54.737 147.628,53.476C146.872,52.254 146.562,48.796 146.562,48.796Z" style="fill:rgb(180,83,246);fill-rule:nonzero;"/>
        <path d="M150.732,58.499C150.732,58.499 150.772,61.1 149.03,62.154C150.774,62.754 151.032,65.338 151.032,65.338C151.032,65.338 151.087,62.519 152.995,61.974C151.468,61.538 150.732,58.499 150.732,58.499Z" style="fill:rgb(180,83,246);fill-rule:nonzero;"/>
        <path d="M194.599,79.798C194.599,79.798 194.639,82.399 192.897,83.453C194.641,84.053 194.899,86.637 194.899,86.637C194.899,86.637 194.953,83.818 196.861,83.273C195.335,82.837 194.599,79.798 194.599,79.798Z" style="fill:rgb(180,83,246);fill-rule:nonzero;"/>
        <path d="M187.333,66.183C186.114,66.183 185.122,67.174 185.122,68.393C185.122,69.612 186.114,70.604 187.333,70.604C188.552,70.604 189.544,69.612 189.544,68.393C189.544,67.174 188.552,66.183 187.333,66.183ZM187.333,71.008C185.891,71.008 184.718,69.835 184.718,68.393C184.718,66.951 185.891,65.778 187.333,65.778C188.775,65.778 189.948,66.951 189.948,68.393C189.948,69.835 188.775,71.008 187.333,71.008Z" style="fill-rule:nonzero;"/>
        <path d="M190.702,62.674C190.136,62.674 189.675,63.134 189.675,63.701C189.675,64.267 190.136,64.728 190.702,64.728C191.268,64.728 191.729,64.267 191.729,63.701C191.729,63.134 191.268,62.674 190.702,62.674ZM190.702,65.132C189.913,65.132 189.271,64.49 189.271,63.701C189.271,62.912 189.913,62.27 190.702,62.27C191.491,62.27 192.133,62.912 192.133,63.701C192.133,64.49 191.491,65.132 190.702,65.132Z" style="fill-rule:nonzero;"/>
        <path d="M156.05,42.909C155.483,42.909 155.023,43.37 155.023,43.936C155.023,44.502 155.483,44.963 156.05,44.963C156.616,44.963 157.077,44.502 157.077,43.936C157.077,43.37 156.616,42.909 156.05,42.909ZM156.05,45.367C155.261,45.367 154.619,44.725 154.619,43.936C154.619,43.147 155.261,42.505 156.05,42.505C156.839,42.505 157.481,43.147 157.481,43.936C157.481,44.725 156.839,45.367 156.05,45.367Z" style="fill-rule:nonzero;"/>
        <path d="M201.458,95.275C201.458,98.083 199.182,100.358 196.375,100.358C193.567,100.358 191.291,98.083 191.291,95.275C191.291,92.468 193.567,90.192 196.375,90.192C199.182,90.192 201.458,92.468 201.458,95.275Z" style="fill-rule:nonzero;"/>
        <path d="M200.1,95.275C200.1,97.332 198.432,99 196.375,99C194.318,99 192.65,97.332 192.65,95.275C192.65,93.218 194.318,91.55 196.375,91.55C198.432,91.55 200.1,93.218 200.1,95.275Z" style="fill:rgb(180,83,246);fill-rule:nonzero;"/>
        <path d="M184.525,97.806C183.88,97.806 183.348,98.331 183.363,98.976L183.363,99C183.372,99.257 183.443,99.49 183.534,99.687C183.724,100.097 184.136,100.358 184.588,100.358L193.327,100.358C193.941,100.358 194.455,99.881 194.487,99.268C194.491,99.183 194.492,99.093 194.489,99C194.487,98.954 194.485,98.909 194.482,98.866C194.438,98.265 193.927,97.806 193.324,97.806L184.525,97.806Z" style="fill:rgb(204,129,255);fill-rule:nonzero;"/>
        <path d="M186.767,95.379C186.122,95.379 185.59,95.904 185.605,96.55L185.605,96.573C185.614,96.826 185.686,97.048 185.779,97.235C185.974,97.625 186.377,97.868 186.814,97.868L195.571,97.868C196.204,97.868 196.726,97.362 196.733,96.728C196.733,96.678 196.733,96.627 196.731,96.573C196.729,96.527 196.727,96.482 196.724,96.439C196.68,95.838 196.169,95.379 195.566,95.379L186.767,95.379Z" style="fill:rgb(204,129,255);fill-rule:nonzero;"/>
        <path d="M183.567,92.889C182.921,92.889 182.39,93.415 182.404,94.06C182.404,94.068 182.405,94.076 182.405,94.084C182.414,94.337 182.485,94.559 182.578,94.745C182.774,95.136 183.177,95.379 183.614,95.379L192.37,95.379C193.004,95.379 193.525,94.872 193.533,94.239C193.533,94.189 193.533,94.137 193.531,94.084C193.529,94.038 193.527,93.993 193.523,93.95C193.479,93.349 192.968,92.889 192.366,92.889L183.567,92.889Z" style="fill:rgb(204,129,255);fill-rule:nonzero;"/>
        <path d="M186.565,95.581C186.454,95.581 186.363,95.491 186.363,95.379C186.363,95.268 186.454,95.177 186.565,95.177L192.482,95.171C192.594,95.171 192.684,95.262 192.684,95.373C192.684,95.485 192.594,95.575 192.482,95.575L186.565,95.581Z" style="fill:rgb(35,0,58);fill-rule:nonzero;"/>
        <path d="M193.702,98.07L193.7,98.07L186.436,98.008C186.324,98.007 186.235,97.915 186.235,97.804C186.236,97.693 186.327,97.604 186.438,97.604L186.439,97.604L193.703,97.666C193.815,97.667 193.905,97.758 193.904,97.87C193.903,97.981 193.813,98.07 193.702,98.07Z" style="fill:rgb(35,0,58);fill-rule:nonzero;"/>
        <path d="M171.702,44.342C170.995,44.811 170.233,45.348 169.495,45.872C167.025,47.641 165.11,50.055 163.988,52.836C161.799,53.494 157.884,54.488 157.22,53.33C156.244,51.622 157.744,50.043 160.58,48.97C162.732,48.159 168.861,45.555 171.702,44.342Z" style="fill:white;fill-rule:nonzero;"/>
        <path d="M169.929,45.316C166.66,46.706 162.383,48.506 160.651,49.159C158.782,49.866 157.565,50.778 157.225,51.726C157.048,52.217 157.105,52.723 157.395,53.23C157.813,53.96 160.22,53.75 163.838,52.67C164.978,49.894 166.892,47.487 169.377,45.708C169.559,45.578 169.744,45.447 169.929,45.316ZM158.81,54.065C157.878,54.065 157.287,53.854 157.044,53.43C156.693,52.816 156.626,52.197 156.844,51.59C157.231,50.513 158.498,49.542 160.508,48.781C162.588,47.997 168.365,45.547 171.623,44.156C171.718,44.115 171.83,44.154 171.88,44.246C171.929,44.338 171.901,44.452 171.814,44.51C171.104,44.981 170.336,45.522 169.612,46.037C167.163,47.791 165.283,50.168 164.176,52.912C164.153,52.969 164.105,53.012 164.046,53.029C161.751,53.72 160.001,54.065 158.81,54.065Z" style="fill-rule:nonzero;"/>
        <path d="M169.69,60.324C169.69,61.568 169.269,62.715 168.556,63.623C167.574,64.879 166.037,65.69 164.318,65.69C161.354,65.69 158.945,63.288 158.945,60.324C158.945,57.708 160.811,55.537 163.281,55.056C163.275,55.075 164.406,54.799 165.629,55.14C166.709,55.442 167.668,56.13 167.812,56.245C168.543,56.873 169.111,57.696 169.422,58.635C169.592,59.165 169.69,59.733 169.69,60.324Z" style="fill-rule:nonzero;"/>
        <path d="M168.635,60.321C168.635,62.705 166.703,64.637 164.319,64.637C161.936,64.637 160.003,62.705 160.003,60.321C160.003,57.938 161.936,56.005 164.319,56.005C166.703,56.005 168.635,57.938 168.635,60.321Z" style="fill:rgb(180,83,246);fill-rule:nonzero;"/>
        <path d="M199.996,48.714C199.996,48.714 194.148,56.391 187.435,59.458C177.465,63.715 170.983,63.654 170.983,63.654C170.983,63.654 169.818,63.775 168.556,63.623C167.049,63.452 165.409,62.897 165.458,61.306C165.519,59.531 167.714,58.873 169.422,58.635C169.836,58.58 170.22,58.544 170.537,58.525C171.708,58.458 172.861,58.287 173.989,57.989C177.08,57.153 181.398,55.141 177.654,50.732C173.842,46.256 170.641,52.299 167.812,56.245C167.5,56.005 166.764,55.601 166.207,55.345C165.658,55.093 165.005,54.968 164.318,54.952C163.964,54.944 163.616,54.988 163.281,55.056C163.458,54.293 163.696,53.549 163.988,52.836C165.11,50.055 167.025,47.641 169.495,45.872C170.233,45.348 170.995,44.811 171.702,44.342C172.422,43.86 173.092,43.439 173.623,43.152C176.117,41.811 177.556,42 180.337,42.579C183.117,43.152 187.91,44.787 187.91,44.787L191.843,41.713L199.996,48.714Z" style="fill:white;fill-rule:nonzero;"/>
        <path d="M174.899,48.948C175.896,48.948 176.873,49.504 177.808,50.601C179.095,52.117 179.557,53.496 179.183,54.7C178.595,56.59 176.063,57.637 174.042,58.184C172.944,58.474 171.769,58.657 170.549,58.727C170.224,58.746 169.843,58.783 169.448,58.835C167.751,59.072 165.715,59.694 165.66,61.313C165.615,62.778 167.222,63.269 168.579,63.422C169.802,63.57 170.95,63.454 170.962,63.453C171.049,63.452 177.547,63.46 187.355,59.272C193.425,56.499 198.86,49.827 199.719,48.741L191.837,41.975L188.035,44.946C187.981,44.988 187.911,45 187.845,44.978C187.798,44.962 183.032,43.341 180.296,42.777C177.595,42.215 176.187,42.003 173.719,43.331C173.226,43.597 172.585,43.994 171.815,44.509C171.104,44.981 170.336,45.522 169.612,46.037C167.163,47.791 165.283,50.168 164.176,52.912C163.924,53.524 163.715,54.159 163.55,54.803C163.828,54.762 164.083,54.744 164.322,54.75C165.073,54.767 165.735,54.906 166.291,55.161C166.755,55.374 167.38,55.708 167.764,55.963C168.065,55.54 168.37,55.095 168.679,54.643C170.555,51.903 172.494,49.071 174.758,48.952C174.805,48.95 174.853,48.948 174.899,48.948ZM169.913,63.902C169.511,63.902 169.031,63.884 168.531,63.823C166.346,63.576 165.213,62.703 165.256,61.3C165.321,59.399 167.542,58.693 169.394,58.435C169.8,58.381 170.191,58.343 170.526,58.324C171.719,58.255 172.867,58.077 173.937,57.793C175.859,57.274 178.264,56.294 178.797,54.58C179.127,53.516 178.691,52.266 177.5,50.863C176.595,49.8 175.698,49.3 174.78,49.356C172.715,49.464 170.748,52.336 169.013,54.871C168.661,55.384 168.316,55.888 167.976,56.362C167.944,56.407 167.895,56.436 167.841,56.444C167.788,56.455 167.732,56.438 167.689,56.405C167.409,56.19 166.706,55.797 166.122,55.528C165.624,55.299 164.998,55.17 164.313,55.154C164.015,55.144 163.691,55.18 163.32,55.254C163.254,55.268 163.184,55.245 163.136,55.196C163.088,55.147 163.069,55.077 163.084,55.01C163.262,54.242 163.503,53.485 163.801,52.759C164.937,49.946 166.865,47.507 169.377,45.708C170.105,45.191 170.876,44.647 171.591,44.173C172.371,43.651 173.023,43.247 173.527,42.975C176.114,41.583 177.655,41.814 180.378,42.381C182.912,42.904 187.155,44.319 187.872,44.56L191.719,41.554C191.795,41.494 191.902,41.496 191.975,41.56L200.128,48.56C200.209,48.63 200.222,48.751 200.157,48.836C200.098,48.913 194.201,56.589 187.519,59.642C177.631,63.863 171.053,63.84 170.981,63.856C170.965,63.858 170.534,63.902 169.913,63.902Z" style="fill-rule:nonzero;"/>
        <path d="M190.882,41.417L200.612,49.525L203.303,46.558L193.263,38.347L190.882,41.417Z" style="fill:rgb(180,83,246);fill-rule:nonzero;"/>
        <path d="M168.795,63.129C168.685,63.129 168.595,63.04 168.593,62.93C168.592,62.818 168.681,62.726 168.792,62.725C168.804,62.725 169.994,62.699 170.585,62.072C170.822,61.82 170.928,61.512 170.911,61.13C170.841,59.577 168.886,59.623 168.802,59.628C168.697,59.625 168.598,59.544 168.594,59.433C168.59,59.321 168.676,59.228 168.788,59.224C169.635,59.195 171.244,59.55 171.315,61.111C171.337,61.602 171.19,62.019 170.878,62.35C170.168,63.102 168.854,63.128 168.798,63.129L168.795,63.129Z" style="fill-rule:nonzero;"/>
        <path d="M150.968,77.965C150.968,77.965 145.834,71.984 148.088,69.838C150.343,67.692 155.585,72.31 155.585,72.31L150.968,77.965Z" style="fill:rgb(180,83,246);fill-rule:nonzero;"/>
        <path d="M178.93,95.007C175.677,97.621 167.208,99.056 158.853,97.905C150.499,96.755 148.368,93.898 148.368,93.6C148.368,93.301 150.329,91.981 150.159,91.597C150.009,91.261 146.566,91.366 145.505,91.398C145.43,91.4 145.36,91.374 145.306,91.329C145.24,91.276 145.199,91.196 145.195,91.106C145.175,90.454 145.213,89.327 145.213,89.327C145.213,89.327 145.228,87.707 145.202,86.658C145.2,86.554 145.229,86.453 145.283,86.369C145.342,86.277 145.43,86.204 145.537,86.163C146.542,85.793 149.259,84.819 149.259,84.819C149.259,84.819 149.178,83.711 149.477,79.491C149.551,78.436 149.884,77.376 150.342,76.379C152.085,72.578 155.547,69.86 159.615,68.894C162.611,68.181 166.008,67.957 170.064,67.983C176.757,68.025 180.507,75.485 180.976,77.965C181.445,80.446 182.183,92.392 178.93,95.007Z" style="fill:rgb(204,129,255);fill-rule:nonzero;"/>
        <path d="M145.306,91.329C145.24,91.276 145.199,91.196 145.195,91.106C145.175,90.454 145.213,89.327 145.213,89.327C145.213,89.327 145.228,87.707 145.202,86.658C145.2,86.554 145.229,86.453 145.283,86.369C145.923,86.572 147.205,87.492 147.205,88.849C147.205,90.468 146.024,90.875 145.306,91.329Z" style="fill:rgb(180,83,246);fill-rule:nonzero;"/>
        <path d="M158.123,96.679L158.123,98.564C158.123,99.992 159.28,101.149 160.707,101.149C162.135,101.149 163.292,99.992 163.292,98.564L163.292,96.679C163.292,96.679 162.33,95.737 160.555,95.759C158.78,95.781 158.123,96.679 158.123,96.679Z" style="fill:rgb(180,83,246);fill-rule:nonzero;"/>
        <path d="M166.54,96.679L166.54,98.564C166.54,99.992 167.697,101.149 169.125,101.149C170.552,101.149 171.71,99.992 171.71,98.564L171.71,96.679C171.71,96.679 170.747,95.737 168.972,95.759C167.197,95.781 166.54,96.679 166.54,96.679Z" style="fill:rgb(180,83,246);fill-rule:nonzero;"/>
        <path d="M153.067,82.734C153.067,83.436 152.705,84.004 152.258,84.004C151.811,84.004 151.448,83.436 151.448,82.734C151.448,82.033 151.811,81.465 152.258,81.465C152.705,81.465 153.067,82.033 153.067,82.734Z" style="fill-rule:nonzero;"/>
        <path d="M170.614,71.051L162.827,71.051C162.716,71.051 162.625,70.961 162.625,70.849C162.625,70.738 162.716,70.647 162.827,70.647L170.614,70.647C170.726,70.647 170.816,70.738 170.816,70.849C170.816,70.961 170.726,71.051 170.614,71.051Z" style="fill-rule:nonzero;"/>
        <path d="M154.035,67.661C152.476,67.458 151.178,68.853 151.487,70.394C151.743,71.672 152.248,73.224 153.232,74.716C155.497,78.152 155.705,77.665 155.705,77.665C155.705,77.665 157.472,78.149 160.179,75.66C161.975,74.009 161.766,72.284 161.682,71.801C161.667,71.712 161.622,71.631 161.554,71.57C161.09,71.15 159.026,69.342 156.932,68.411C156.023,68.007 154.979,67.783 154.035,67.661Z" style="fill:rgb(204,129,255);fill-rule:nonzero;"/>
        <path d="M156.159,77.942C155.641,77.942 155.142,77.692 154.833,77.252C153.973,76.027 152.471,73.844 152.074,72.982C152.027,72.881 152.072,72.761 152.173,72.714C152.273,72.668 152.395,72.711 152.441,72.813C152.825,73.646 154.312,75.806 155.164,77.02C155.462,77.446 156,77.636 156.498,77.49C158.086,77.028 159.507,76.175 160.606,75.023L160.752,74.868C161.848,73.673 162.107,72.682 161.522,71.925C159.997,69.95 156.884,68.61 156.853,68.597C156.75,68.554 156.702,68.435 156.746,68.332C156.79,68.229 156.909,68.182 157.011,68.225C157.143,68.281 160.252,69.618 161.842,71.678C162.339,72.322 162.605,73.445 161.05,75.141L160.898,75.303C159.75,76.506 158.267,77.396 156.611,77.878C156.461,77.921 156.309,77.942 156.159,77.942Z" style="fill-rule:nonzero;"/>
        <path d="M184.192,79.039C183.8,79.039 183.388,79.19 182.988,79.488C182.448,79.891 182.398,80.41 182.451,80.775C182.568,81.578 183.285,82.397 184.169,82.748C184.284,82.693 184.4,82.631 184.518,82.561C185.334,82.074 185.781,81.363 185.744,80.611C185.714,79.992 185.352,79.43 184.821,79.179C184.621,79.085 184.41,79.039 184.192,79.039ZM182.666,83.496C181.439,83.496 180.581,82.909 180.569,82.9C180.478,82.836 180.455,82.71 180.52,82.619C180.583,82.528 180.708,82.505 180.8,82.569C180.86,82.611 182.07,83.431 183.65,82.949C182.806,82.487 182.173,81.669 182.051,80.833C181.953,80.164 182.2,79.572 182.746,79.164C183.482,78.615 184.301,78.488 184.993,78.814C185.657,79.127 186.11,79.825 186.148,80.591C186.192,81.494 185.676,82.337 184.733,82.903C185.475,83.023 186.209,82.788 186.841,82.228C188.142,81.076 187.381,79.397 187.348,79.326C187.301,79.225 187.344,79.105 187.445,79.058C187.548,79.011 187.666,79.054 187.714,79.155C187.723,79.175 188.638,81.176 187.109,82.53C186.245,83.296 185.21,83.525 184.184,83.184C183.643,83.413 183.128,83.496 182.666,83.496Z" style="fill-rule:nonzero;"/>
        <path d="M199.938,70.874C199.938,67.72 202.165,65.339 204.855,65.327C207.499,65.316 208.872,68.237 208.871,70.849C208.87,73.089 207.481,76.587 204.714,76.587C202.52,76.587 199.938,74.107 199.938,70.874Z" style="fill:rgb(237,211,254);fill-rule:nonzero;"/>
        <path d="M154.249,30.935C154.216,32.139 159.411,33.203 163.281,34.423C167.353,35.707 170.888,37.599 173.447,37.384C176.005,37.169 180.033,35.107 183.48,33.502C186.928,31.897 190.21,31.895 192.165,31.761C194.12,31.626 195.825,28.649 191.856,28.349C187.887,28.049 183.775,29.73 179.944,31.513C176.113,33.296 171.707,33.158 168.647,32.134C165.588,31.111 161.849,30.014 159.021,29.722C155.908,29.401 154.288,29.554 154.249,30.935Z" style="fill:rgb(237,211,254);fill-rule:nonzero;"/>
        <path d="M211.704,62.265C211.684,63.667 210.809,65.006 209.043,65.116C206.596,65.269 205.26,62.112 206.59,60.264C207.245,59.354 208.529,58.768 209.619,59.148C211.018,59.635 211.722,60.976 211.704,62.265Z" style="fill:rgb(237,211,254);fill-rule:nonzero;"/>
    </g>
</svg>
