<svg width="100%" height="100%" viewBox="0 0 75 75" version="1.1" xmlns="http://www.w3.org/2000/svg" xmlns:xlink="http://www.w3.org/1999/xlink" xml:space="preserve" xmlns:serif="http://www.serif.com/" style="fill-rule:evenodd;clip-rule:evenodd;stroke-linejoin:round;stroke-miterlimit:2;">
    <g transform="matrix(1,0,0,1,-244.484934,-27.444126)">
        <path d="M249.125,42.96C246.635,48.41 247.458,54.808 251.124,59.548C253.005,61.981 255.01,65.241 255.355,68.419C256.032,74.647 249.751,80.251 248.688,88.657C247.626,97.063 248.405,99.615 254.969,100.928C261.532,102.241 288.455,100.928 288.455,100.928C288.455,100.928 310.527,103.537 314.005,99.672C317.483,95.807 317.387,92.329 314.005,86.821C310.623,81.314 310.803,73.418 312.694,67.559C314.585,61.7 318.891,47.775 312.148,41.645C305.406,35.515 301.358,39.187 296.715,38.704C292.072,38.22 279.636,31.74 270.873,31.843C263.074,31.936 253.105,34.249 249.125,42.96Z" style="fill:rgb(230,193,255);fill-rule:nonzero;"/>
        <path d="M286.051,45.939C285.377,49.106 282.547,50.419 277.561,51.801C276.771,52.02 276.048,52.283 275.367,52.578C274.72,52.859 274.112,53.169 273.518,53.499C272.842,53.877 272.185,54.281 271.515,54.698C270.836,55.121 270.144,55.557 269.402,55.993C267.934,56.856 266.275,57.717 264.152,58.471C260.936,59.613 258.655,59.501 257.209,59.13C256.777,59.02 256.419,58.886 256.133,58.757C255.542,58.488 255.258,58.236 255.258,58.236C255.258,58.236 254.329,57.652 253.865,56.115L253.865,56.114C253.767,55.791 253.691,55.426 253.647,55.016C253.62,54.77 253.606,54.507 253.607,54.227C253.611,52.1 255.359,47.59 262.686,42.367C270.013,37.145 275.809,37.414 279.447,38.46C283.087,39.504 286.725,42.771 286.051,45.939Z" style="fill:rgb(204,129,255);fill-rule:nonzero;"/>
        <path d="M265.998,95.283C265.998,95.283 267.106,97.823 270.478,98.146C273.849,98.47 278.144,98.239 278.144,96.114C278.144,93.99 275.973,92.789 271.771,92.651C267.568,92.512 265.998,95.283 265.998,95.283Z" style="fill:rgb(83,121,246);fill-rule:nonzero;"/>
        <path d="M306.543,99.021C306.855,98.887 312.476,98.664 313.056,99.467C313.413,100.314 311.072,100.137 311.072,100.137C311.072,100.137 312.086,100.274 312.03,100.894C311.956,101.704 304.704,101.274 304.704,101.274L306.543,99.021Z" style="fill:white;fill-rule:nonzero;"/>
        <path d="M305.134,101.085C308.215,101.247 311.545,101.205 311.827,100.845C311.854,100.473 311.051,100.35 311.042,100.349C310.929,100.333 310.848,100.229 310.86,100.115C310.872,100.001 310.958,99.906 311.087,99.926C311.818,99.977 312.704,99.902 312.863,99.682C312.874,99.667 312.896,99.636 312.859,99.549C312.426,98.958 307.354,99.07 306.665,99.208L305.134,101.085ZM308.452,101.615C307.26,101.615 305.931,101.56 304.692,101.487C304.612,101.482 304.541,101.433 304.509,101.359C304.477,101.286 304.489,101.201 304.539,101.139L306.378,98.886C306.399,98.859 306.427,98.839 306.459,98.825C306.746,98.7 312.544,98.392 313.229,99.342C313.359,99.638 313.288,99.821 313.209,99.931C313.012,100.204 312.516,100.312 312.044,100.351C312.18,100.495 312.264,100.68 312.242,100.913C312.194,101.447 310.531,101.615 308.452,101.615Z" style="fill-rule:nonzero;"/>
        <path d="M308.547,70.954C308.614,70.656 308.719,69.033 310.002,66.557C311.285,64.08 312.148,60.867 312.148,59.218C312.148,57.57 311.005,55.166 309.745,54.676C308.485,54.186 308.229,55.05 308.695,55.68C307.995,55.89 307.934,56.636 308.478,57.056C309.022,57.476 309.909,57.733 309.885,58.62C309.862,59.506 309.652,61.816 309.652,61.816L308.547,70.954Z" style="fill:white;fill-rule:nonzero;"/>
        <path d="M309.09,54.745C308.935,54.745 308.818,54.788 308.754,54.872C308.639,55.022 308.686,55.309 308.866,55.553C308.908,55.609 308.919,55.681 308.898,55.747C308.876,55.813 308.823,55.864 308.756,55.884C308.521,55.954 308.371,56.099 308.335,56.293C308.297,56.5 308.402,56.728 308.609,56.887C308.733,56.983 308.876,57.07 309.02,57.158C309.51,57.456 310.119,57.827 310.098,58.626C310.075,59.509 309.873,61.741 309.864,61.835L309.123,67.965C309.305,67.507 309.53,67.003 309.812,66.458C311.141,63.893 311.935,60.763 311.935,59.218C311.935,57.692 310.868,55.342 309.668,54.876C309.445,54.788 309.247,54.745 309.09,54.745ZM308.547,71.167C308.534,71.167 308.522,71.166 308.51,71.163C308.398,71.144 308.321,71.04 308.335,70.928L309.44,61.79C309.442,61.774 309.649,59.484 309.672,58.614C309.686,58.063 309.275,57.813 308.799,57.523C308.64,57.425 308.484,57.331 308.348,57.226C308.014,56.967 307.848,56.58 307.916,56.215C307.966,55.944 308.133,55.721 308.386,55.58C308.217,55.232 308.222,54.865 308.415,54.613C308.565,54.417 308.948,54.139 309.823,54.478C311.19,55.01 312.362,57.529 312.362,59.218C312.362,60.814 311.55,64.032 310.191,66.655C309.099,68.763 308.875,70.236 308.79,70.791C308.776,70.887 308.764,70.957 308.754,71.001C308.732,71.099 308.644,71.167 308.547,71.167Z" style="fill-rule:nonzero;"/>
        <path d="M304.059,61.411C304.059,61.411 307.06,60.232 308.186,63.823C309.312,67.415 307.823,70.363 304.686,70.417C301.549,70.47 299.576,67.782 299.576,67.782L304.059,61.411Z" style="fill-rule:nonzero;"/>
        <path d="M300.36,66.879C300.521,66.718 302.665,65.967 303.415,67.522C304.166,69.076 302.129,70.577 300.36,70.792C298.591,71.006 297.197,70.524 297.197,70.524L300.36,66.879Z" style="fill:white;fill-rule:nonzero;"/>
        <path d="M297.578,70.41C298.076,70.534 299.117,70.728 300.334,70.58C301.504,70.438 302.724,69.715 303.17,68.897C303.407,68.464 303.425,68.032 303.223,67.614C303.026,67.205 302.699,66.941 302.253,66.83C301.52,66.649 300.66,66.934 300.508,67.033L297.578,70.41ZM299.433,71.06C298.115,71.06 297.175,70.742 297.128,70.725C297.06,70.702 297.009,70.647 296.991,70.579C296.973,70.51 296.99,70.437 297.036,70.384L300.199,66.739C300.202,66.735 300.205,66.731 300.209,66.728C300.382,66.556 301.333,66.24 302.182,66.38C302.837,66.491 303.33,66.854 303.607,67.429C303.869,67.97 303.847,68.549 303.545,69.102C303.03,70.044 301.701,70.844 300.386,71.004C300.052,71.044 299.732,71.06 299.433,71.06Z" style="fill-rule:nonzero;"/>
        <path d="M285.029,71.703L284.332,75.616C284.332,75.616 284.493,78.779 289.264,79.476C294.035,80.173 295.16,77.707 295.16,77.707C295.16,77.707 294.211,74.759 295.731,71.703C293.981,72.722 291.408,73.74 289.21,73.526C287.012,73.311 285.029,71.703 285.029,71.703Z" style="fill:white;fill-rule:nonzero;"/>
        <path d="M285.178,72.082L284.542,75.654C284.552,75.727 284.768,78.604 289.295,79.265C293.444,79.869 294.711,78.069 294.931,77.685C294.792,77.196 294.216,74.815 295.275,72.199C294.022,72.855 291.512,73.962 289.189,73.738C287.419,73.566 285.812,72.537 285.178,72.082ZM290.887,79.814C290.39,79.814 289.84,79.775 289.233,79.686C284.345,78.973 284.121,75.661 284.119,75.627L284.819,71.666C284.833,71.592 284.884,71.53 284.955,71.503C285.025,71.475 285.105,71.49 285.163,71.537C285.183,71.553 287.125,73.108 289.231,73.313C291.86,73.573 294.789,72.005 295.624,71.519C295.706,71.47 295.808,71.484 295.877,71.547C295.945,71.612 295.964,71.714 295.922,71.798C294.461,74.735 295.354,77.613 295.363,77.642C295.379,77.692 295.376,77.747 295.354,77.796C295.311,77.889 294.387,79.814 290.887,79.814Z" style="fill-rule:nonzero;"/>
        <path d="M273.061,58.391C273.061,58.391 273.135,61.615 271.894,62.884C270.324,64.489 268.995,64.325 268.995,64.325C268.995,64.325 271.617,64.407 272.496,65.452C273.374,66.497 273.309,68.419 273.309,68.419C273.309,68.419 273.374,66.002 274.418,64.904C275.461,63.806 277.128,63.778 277.128,63.778C277.128,63.778 275.015,63.386 274.229,62.115C273.467,60.884 273.061,58.391 273.061,58.391Z" style="fill:rgb(180,83,246);fill-rule:nonzero;"/>
        <path d="M279.354,64.114C279.354,64.114 279.394,66.734 277.639,67.797C279.396,68.401 279.656,71.004 279.656,71.004C279.656,71.004 279.711,68.164 281.633,67.615C280.095,67.176 279.354,64.114 279.354,64.114Z" style="fill:rgb(180,83,246);fill-rule:nonzero;"/>
        <path d="M301.29,43.353C301.29,43.353 301.331,45.973 299.576,47.035C301.333,47.64 301.593,50.243 301.593,50.243C301.593,50.243 301.648,47.403 303.57,46.854C302.032,46.415 301.29,43.353 301.29,43.353Z" style="fill:rgb(180,83,246);fill-rule:nonzero;"/>
        <path d="M289.317,55.247C289.016,55.552 284.07,60.713 283.368,65.416C282.665,70.119 284.271,74.819 290.996,74.025C297.722,73.23 302.339,64.999 302.339,64.999L297.822,55.062L289.317,55.247Z" style="fill:white;fill-rule:nonzero;"/>
        <path d="M289.41,55.458C288.832,56.063 284.246,60.981 283.579,65.448C283.137,68.4 283.671,70.827 285.081,72.281C286.368,73.607 288.35,74.124 290.972,73.813C297.132,73.085 301.566,65.891 302.099,64.988L297.686,55.279L289.41,55.458ZM289.559,74.327C287.508,74.327 285.903,73.741 284.775,72.577C283.27,71.026 282.696,68.471 283.157,65.384C283.886,60.504 289.113,55.151 289.165,55.097C289.204,55.057 289.257,55.034 289.313,55.033L297.818,54.849C297.909,54.838 297.981,54.897 298.016,54.974L302.533,64.911C302.561,64.973 302.558,65.045 302.525,65.104C302.478,65.187 297.776,73.438 291.021,74.236C290.512,74.297 290.024,74.327 289.559,74.327Z" style="fill-rule:nonzero;"/>
        <path d="M293.284,56.801C293.469,56.668 292.212,61.891 296.286,64.385C300.36,66.879 301.521,67.159 302.797,65.822C304.733,63.793 306.266,57.813 301.495,54.007C296.724,50.201 289.21,51.977 286.776,58.325C289.157,58.624 291.193,58.302 293.284,56.801Z" style="fill-rule:nonzero;"/>
        <path d="M304.068,80.459C304.068,80.459 302.618,98.189 302.528,98.329C302.438,98.469 278.148,96.759 278.148,96.759C278.148,96.759 278.128,96.699 278.058,96.589C277.758,96.149 276.568,94.909 272.328,94.499C268.398,94.119 266.798,94.749 266.248,95.089C266.108,95.169 266.038,95.239 266.008,95.269C266.028,95.169 266.208,94.639 266.488,93.809L266.488,93.799C267.808,89.789 271.498,78.819 273.108,75.929C274.868,72.779 278.528,73.579 279.328,73.799L279.488,73.849L285.028,75.149C286.318,77.829 287.178,78.429 289.368,78.799C292.778,79.369 293.708,78.199 294.678,76.859C297.628,77.869 304.068,80.459 304.068,80.459Z" style="fill:rgb(204,129,255);fill-rule:nonzero;"/>
        <path d="M269.205,93.177C269.071,93.266 268.179,100.983 271.257,101.697C274.335,102.411 304.068,101.346 304.068,101.346L299.576,98.084C299.576,98.084 282.9,96.523 277.011,96.79C277.19,95.943 276.967,93.98 276.833,93.98C276.699,93.98 269.205,93.177 269.205,93.177Z" style="fill:white;fill-rule:nonzero;"/>
        <path d="M269.362,93.408C269.209,94.257 268.866,98.308 270,100.379C270.336,100.993 270.775,101.366 271.305,101.489C274.076,102.132 299.157,101.303 303.442,101.155L299.498,98.29C298.41,98.19 282.655,96.749 277.021,97.004C276.951,97.001 276.891,96.979 276.849,96.929C276.806,96.878 276.789,96.811 276.803,96.746C276.954,96.024 276.8,94.559 276.7,94.182C275.841,94.102 271.145,93.599 269.362,93.408ZM277.789,102.157C274.5,102.157 272.002,102.088 271.208,101.904C270.083,101.643 269.335,100.538 268.985,98.619C268.585,96.419 268.811,93.184 269.086,93C269.127,92.972 269.176,92.957 269.228,92.965C271.278,93.184 276.643,93.757 276.839,93.767C276.9,93.77 276.979,93.811 277.017,93.857C277.206,94.091 277.357,95.668 277.261,96.567C283.312,96.352 299.431,97.856 299.596,97.871C299.634,97.875 299.671,97.889 299.701,97.911L304.193,101.174C304.267,101.227 304.298,101.321 304.272,101.409C304.246,101.495 304.167,101.556 304.076,101.559C303.175,101.592 287.226,102.157 277.789,102.157Z" style="fill-rule:nonzero;"/>
        <path d="M294.908,96.161C294.908,96.161 295.278,97.084 297.541,97.176C299.804,97.269 301.164,93.627 301.164,93.627C301.164,93.627 297.541,93.297 294.908,96.161Z" style="fill:rgb(180,83,246);fill-rule:nonzero;"/>
        <path d="M306.141,57.872C305.838,57.89 305.227,57.948 304.924,57.979C304.136,58.059 302.834,58.275 302.719,58.892C302.558,59.749 306.256,59.481 306.256,59.481C306.256,59.481 307.543,61.625 306.953,62.537C306.364,63.448 304.208,66.718 304.911,68.165C305.613,69.613 305.387,70.095 304.911,72.4C304.434,74.705 301.164,93.627 301.164,93.627C301.164,93.627 299.052,93.393 296.907,94.465C297.765,97.199 300.003,101.668 304.068,101.346C308.133,101.024 309.365,98.505 309.58,92.716C309.794,86.927 307.757,75.88 308.025,74.113C308.293,72.346 309.596,64.842 309.596,64.842C309.596,64.842 310.223,62.751 311.188,61.465C312.153,60.178 312.474,60.071 312.635,58.784C312.796,57.498 312.635,54.985 312.046,55.062C311.456,55.139 311.885,58.366 311.242,59.218C310.598,60.071 308.56,60.982 308.56,60.982C308.56,60.982 307.74,58.302 307.453,58.082C307.07,57.789 306.775,57.833 306.141,57.872Z" style="fill:white;fill-rule:nonzero;"/>
        <path d="M297.167,94.576C297.77,96.416 299.823,101.479 304.051,101.134C307.803,100.836 309.144,98.711 309.367,92.709C309.491,89.366 308.862,84.281 308.357,80.194C307.989,77.209 307.698,74.852 307.815,74.081C308.08,72.332 309.372,64.88 309.386,64.806C309.417,64.694 310.041,62.639 311.017,61.336C311.225,61.06 311.403,60.837 311.556,60.646C312.116,59.946 312.305,59.71 312.424,58.757C312.6,57.349 312.354,55.384 312.067,55.273C311.952,55.383 311.907,56.262 311.878,56.843C311.827,57.838 311.775,58.866 311.412,59.346C310.743,60.233 308.732,61.139 308.647,61.177C308.59,61.202 308.526,61.2 308.472,61.176C308.416,61.151 308.374,61.103 308.356,61.045C307.983,59.825 307.48,58.409 307.318,58.247C307.032,58.028 306.815,58.044 306.29,58.075L306.154,58.083C305.853,58.103 305.246,58.16 304.946,58.191C303.747,58.313 302.992,58.589 302.928,58.931C302.925,58.947 302.924,58.961 302.946,58.985C303.248,59.323 305.055,59.353 306.241,59.269C306.319,59.258 306.398,59.303 306.439,59.371C306.578,59.603 307.776,61.659 307.132,62.652L307.09,62.717C305.35,65.404 304.682,67.205 305.103,68.072C305.761,69.428 305.636,70.015 305.265,71.757L305.119,72.444C304.649,74.719 301.407,93.474 301.374,93.664C301.355,93.774 301.254,93.85 301.141,93.839C301.121,93.838 299.17,93.638 297.167,94.576ZM303.649,101.576C299.264,101.576 297.234,96.217 296.704,94.53C296.673,94.43 296.719,94.321 296.812,94.275C298.628,93.368 300.4,93.37 300.987,93.4C301.332,91.406 304.256,74.514 304.702,72.357L304.847,71.667C305.215,69.946 305.313,69.483 304.719,68.259C303.979,66.735 306.051,63.537 306.732,62.486L306.774,62.421C307.173,61.805 306.502,60.345 306.138,59.703C305.416,59.749 303.141,59.843 302.628,59.269C302.521,59.149 302.48,59.006 302.509,58.852C302.616,58.282 303.421,57.917 304.903,57.766C305.207,57.735 305.822,57.678 306.128,57.659L306.128,57.658L306.263,57.65C306.826,57.616 307.165,57.593 307.583,57.913C307.864,58.129 308.408,59.774 308.691,60.685C309.225,60.427 310.589,59.729 311.071,59.09C311.356,58.713 311.409,57.665 311.452,56.822C311.51,55.672 311.549,54.912 312.018,54.851C312.109,54.836 312.253,54.852 312.389,54.987C312.927,55.523 312.974,57.794 312.847,58.811C312.713,59.883 312.455,60.205 311.889,60.912C311.738,61.101 311.563,61.32 311.359,61.593C310.428,62.833 309.806,64.883 309.8,64.904C309.793,64.954 308.501,72.4 308.236,74.145C308.128,74.858 308.431,77.307 308.781,80.142C309.288,84.243 309.918,89.348 309.793,92.724C309.596,98.05 308.598,101.202 304.085,101.559C303.937,101.57 303.792,101.576 303.649,101.576Z" style="fill-rule:nonzero;"/>
        <path d="M284.058,74.308C283.175,74.163 282.418,74.96 282.571,75.871C282.802,77.243 283.367,79.539 285.575,80.789C289.291,82.892 292.665,82.228 294.614,80.689C295.434,80.041 296.02,79.308 296.422,78.677C296.897,77.932 296.552,76.924 295.73,76.653L295.715,76.648C295.203,76.479 294.644,76.653 294.307,77.087C293.667,77.912 292.292,79.077 289.762,78.725C286.913,78.329 285.534,76.128 285.018,75.037C284.833,74.647 284.473,74.377 284.058,74.308Z" style="fill:rgb(180,83,246);fill-rule:nonzero;"/>
        <path d="M294.908,96.374C294.883,96.374 294.857,96.369 294.831,96.359C294.733,96.32 294.677,96.216 294.701,96.113C297.031,85.907 297.192,85.817 297.299,85.758C297.401,85.7 297.531,85.739 297.589,85.841C297.632,85.918 297.621,86.009 297.571,86.075C297.377,86.505 296.192,91.524 295.321,95.314C295.932,94.706 297.058,93.892 298.918,93.531C299.03,93.504 299.146,93.583 299.169,93.699C299.191,93.815 299.115,93.927 299,93.949C296.119,94.509 295.104,96.248 295.094,96.266C295.056,96.334 294.983,96.374 294.908,96.374Z" style="fill-rule:nonzero;"/>
        <path d="M287.452,69.939C287.209,69.939 286.915,69.886 286.572,69.733C285.429,69.225 285.536,68.326 285.541,68.287C285.556,68.17 285.668,68.095 285.78,68.104C285.896,68.12 285.978,68.226 285.964,68.342C285.96,68.373 285.909,68.972 286.745,69.343C287.594,69.719 288.001,69.352 288.018,69.336C288.103,69.257 288.237,69.259 288.318,69.342C288.399,69.425 288.4,69.558 288.317,69.64C288.3,69.657 288.009,69.939 287.452,69.939Z" style="fill-rule:nonzero;"/>
        <path d="M288.15,67.719C288.129,67.719 288.108,67.716 288.087,67.709C287.042,67.385 286.887,66.49 286.88,66.452C286.872,66.395 286.886,66.337 286.92,66.291L289.648,62.616C289.718,62.522 289.852,62.502 289.946,62.572C290.041,62.642 290.061,62.776 289.99,62.871L287.322,66.465C287.38,66.651 287.583,67.106 288.214,67.303C288.326,67.337 288.389,67.457 288.354,67.569C288.326,67.661 288.241,67.719 288.15,67.719Z" style="fill-rule:nonzero;"/>
        <path d="M286.714,62.329C286.373,62.76 286.265,63.243 286.474,63.408C286.682,63.573 287.128,63.357 287.469,62.926C287.81,62.495 287.917,62.012 287.708,61.847C287.5,61.682 287.055,61.898 286.714,62.329Z" style="fill-rule:nonzero;"/>
        <path d="M288.15,63.098C288.033,63.098 287.937,63.002 287.937,62.885C287.937,62.885 287.923,62.601 287.615,62.098C287.311,61.602 286.725,61.433 286.719,61.431C286.606,61.4 286.539,61.282 286.57,61.169C286.602,61.056 286.719,60.99 286.832,61.02C286.862,61.028 287.585,61.232 287.979,61.874C288.353,62.486 288.363,62.846 288.363,62.885C288.363,63.002 288.268,63.098 288.15,63.098Z" style="fill-rule:nonzero;"/>
        <path d="M289.595,61.204C289.546,61.204 289.496,61.187 289.456,61.152L287.585,59.549C287.496,59.472 287.485,59.338 287.562,59.248C287.639,59.159 287.774,59.148 287.862,59.226L289.733,60.829C289.823,60.906 289.833,61.04 289.757,61.13C289.715,61.179 289.655,61.204 289.595,61.204Z" style="fill-rule:nonzero;"/>
        <path d="M292.111,65.898C291.754,66.316 291.301,66.515 291.099,66.342C290.896,66.17 291.021,65.691 291.378,65.273C291.734,64.855 292.188,64.656 292.39,64.828C292.592,65.001 292.467,65.479 292.111,65.898Z" style="fill-rule:nonzero;"/>
        <path d="M293.221,65.753C293.15,65.753 293.08,65.717 293.039,65.652C293.036,65.647 292.711,65.13 292.151,64.975C291.581,64.818 291.306,64.884 291.302,64.884C291.189,64.911 291.073,64.846 291.043,64.733C291.012,64.621 291.076,64.505 291.188,64.473C291.225,64.463 291.574,64.373 292.265,64.564C292.99,64.764 293.386,65.402 293.403,65.429C293.464,65.529 293.432,65.66 293.332,65.722C293.297,65.743 293.259,65.753 293.221,65.753Z" style="fill-rule:nonzero;"/>
        <path d="M294.067,64.801C294.02,64.801 293.973,64.786 293.934,64.756C293.909,64.736 293.303,64.253 292.028,63.085C291.941,63.005 291.935,62.87 292.015,62.783C292.095,62.696 292.23,62.691 292.316,62.77C293.578,63.926 294.193,64.416 294.199,64.421C294.292,64.494 294.307,64.628 294.234,64.721C294.192,64.774 294.13,64.801 294.067,64.801Z" style="fill-rule:nonzero;"/>
        <path d="M257.548,50.083L257.784,56.147C257.784,56.147 266.207,56.215 266.241,56.147C266.274,56.08 266.443,50.083 266.443,50.083L261.827,43.984L257.548,50.083Z" style="fill:white;fill-rule:nonzero;"/>
        <path d="M257.989,55.935C260.95,55.959 265.161,55.978 266.042,55.949C266.079,55.214 266.169,52.228 266.228,50.152L261.834,44.347L257.764,50.146L257.989,55.935ZM263.886,56.396C262.614,56.396 260.693,56.383 257.782,56.36C257.668,56.359 257.575,56.269 257.571,56.155L257.334,50.091C257.333,50.045 257.346,49.999 257.374,49.961L261.653,43.862C261.691,43.807 261.755,43.773 261.823,43.772C261.896,43.763 261.956,43.802 261.997,43.856L266.613,49.955C266.642,49.993 266.657,50.04 266.656,50.089C266.486,56.133 266.46,56.186 266.431,56.242C266.378,56.349 266.354,56.396 263.886,56.396Z" style="fill-rule:nonzero;"/>
        <path d="M275.472,50.081L275.367,52.578C274.72,52.859 274.112,53.169 273.518,53.499C272.842,53.877 272.185,54.281 271.515,54.698C270.836,55.121 270.144,55.557 269.402,55.993L266.24,56.147L266.443,50.083L261.827,43.985L271.126,43.85L275.472,50.081Z" style="fill:white;fill-rule:nonzero;"/>
        <path d="M262.251,44.192L266.612,49.955C266.642,49.993 266.657,50.041 266.656,50.09L266.461,55.923L269.339,55.783C269.954,55.421 270.534,55.058 271.102,54.704L271.402,54.518C272.072,54.1 272.73,53.695 273.414,53.313C274.033,52.969 274.606,52.681 275.16,52.436L275.256,50.144L271.016,44.065L262.251,44.192ZM266.24,56.36C266.184,56.36 266.131,56.338 266.091,56.299C266.048,56.257 266.025,56.199 266.027,56.139L266.227,50.151L261.657,44.113C261.608,44.05 261.6,43.963 261.635,43.892C261.67,43.819 261.743,43.772 261.824,43.772L271.123,43.637C271.209,43.628 271.26,43.67 271.301,43.728L275.647,49.959C275.673,49.997 275.687,50.043 275.685,50.09L275.581,52.587C275.577,52.668 275.527,52.741 275.452,52.773C274.873,53.024 274.274,53.323 273.621,53.686C272.946,54.063 272.292,54.465 271.627,54.879L271.327,55.067C270.743,55.431 270.145,55.804 269.511,56.178C269.481,56.195 269.447,56.205 269.413,56.207L266.251,56.36L266.24,56.36Z" style="fill-rule:nonzero;"/>
        <path d="M266.443,50.083L275.472,50.081L271.126,43.85L261.827,43.984L266.443,50.083Z" style="fill:white;fill-rule:nonzero;"/>
        <path d="M262.251,44.192L266.549,49.87L275.064,49.867L271.016,44.065L262.251,44.192ZM266.443,50.296C266.376,50.296 266.314,50.265 266.273,50.212L261.657,44.114C261.608,44.05 261.6,43.963 261.635,43.892C261.67,43.819 261.743,43.772 261.824,43.772L271.123,43.637C271.209,43.628 271.26,43.67 271.301,43.728L275.647,49.959C275.693,50.024 275.698,50.109 275.661,50.179C275.625,50.25 275.552,50.294 275.472,50.294L266.443,50.296Z" style="fill-rule:nonzero;"/>
        <path d="M273.518,51.801L273.518,53.499C272.842,53.877 272.185,54.281 271.515,54.698L268.229,54.698C268.229,54.698 268.296,52.003 268.229,51.801L273.518,51.801Z" style="fill:rgb(180,83,246);fill-rule:nonzero;"/>
        <rect x="260.345" y="51.801" width="2.661" height="3.841" style="fill:rgb(180,83,246);fill-rule:nonzero;"/>
        <path d="M257.548,50.083L266.443,50.083L261.827,43.984L257.548,50.083Z" style="fill:white;fill-rule:nonzero;"/>
        <path d="M257.958,49.87L266.014,49.87L261.834,44.347L257.958,49.87ZM266.443,50.296L257.548,50.296C257.469,50.296 257.396,50.252 257.359,50.181C257.321,50.11 257.328,50.026 257.374,49.961L261.653,43.862C261.691,43.807 261.755,43.773 261.823,43.772C261.896,43.763 261.956,43.802 261.997,43.856L266.613,49.954C266.662,50.019 266.67,50.105 266.634,50.178C266.598,50.25 266.524,50.296 266.443,50.296Z" style="fill-rule:nonzero;"/>
        <path d="M262.686,48.002C262.686,48.667 262.302,49.207 261.827,49.207C261.353,49.207 260.967,48.667 260.967,48.002C260.967,47.337 261.353,46.798 261.827,46.798C262.302,46.798 262.686,47.337 262.686,48.002Z" style="fill:rgb(180,83,246);fill-rule:nonzero;"/>
        <path d="M262.803,45.274L272.119,45.274L262.803,45.274Z" style="fill:white;fill-rule:nonzero;"/>
        <path d="M272.119,45.487L262.803,45.487C262.685,45.487 262.59,45.391 262.59,45.273C262.59,45.156 262.685,45.06 262.803,45.06L272.119,45.06C272.237,45.06 272.332,45.156 272.332,45.273C272.332,45.391 272.237,45.487 272.119,45.487Z" style="fill-rule:nonzero;"/>
        <path d="M263.956,46.426L273.1,46.308L263.956,46.426Z" style="fill:white;fill-rule:nonzero;"/>
        <path d="M263.957,46.639C263.84,46.639 263.745,46.546 263.743,46.429C263.742,46.311 263.836,46.215 263.954,46.213L273.097,46.095L273.099,46.095C273.216,46.095 273.311,46.188 273.313,46.305C273.314,46.423 273.22,46.52 273.102,46.521L263.96,46.639L263.957,46.639Z" style="fill-rule:nonzero;"/>
        <path d="M264.641,47.619L273.664,47.446L264.641,47.619Z" style="fill:white;fill-rule:nonzero;"/>
        <path d="M264.641,47.832C264.525,47.832 264.43,47.74 264.428,47.623C264.426,47.506 264.519,47.408 264.637,47.406L273.66,47.233C273.788,47.23 273.875,47.324 273.878,47.442C273.88,47.559 273.786,47.657 273.668,47.659L264.645,47.832L264.641,47.832Z" style="fill-rule:nonzero;"/>
        <path d="M265.625,49.016L274.598,48.87L265.625,49.016Z" style="fill:white;fill-rule:nonzero;"/>
        <path d="M265.625,49.229C265.509,49.229 265.414,49.136 265.412,49.019C265.41,48.902 265.504,48.804 265.622,48.803L274.594,48.657L274.598,48.657C274.714,48.657 274.809,48.75 274.811,48.867C274.813,48.984 274.719,49.082 274.601,49.083L265.628,49.229L265.625,49.229Z" style="fill-rule:nonzero;"/>
        <path d="M282.47,46.739C282.47,48.304 281.201,49.572 279.636,49.572C278.071,49.572 276.802,48.304 276.802,46.739C276.802,45.173 278.071,43.905 279.636,43.905C281.201,43.905 282.47,45.173 282.47,46.739Z" style="fill-rule:nonzero;"/>
        <path d="M281.841,46.739C281.841,47.956 280.853,48.943 279.636,48.943C278.418,48.943 277.431,47.956 277.431,46.739C277.431,45.521 278.418,44.534 279.636,44.534C280.853,44.534 281.841,45.521 281.841,46.739Z" style="fill:rgb(180,83,246);fill-rule:nonzero;"/>
        <path d="M280.265,42.829C280.265,44.394 278.997,45.663 277.431,45.663C275.866,45.663 274.598,44.394 274.598,42.829C274.598,41.264 275.866,39.995 277.431,39.995C278.997,39.995 280.265,41.264 280.265,42.829Z" style="fill-rule:nonzero;"/>
        <path d="M279.636,42.829C279.636,44.047 278.649,45.034 277.431,45.034C276.214,45.034 275.227,44.047 275.227,42.829C275.227,41.612 276.214,40.625 277.431,40.625C278.649,40.625 279.636,41.612 279.636,42.829Z" style="fill:rgb(180,83,246);fill-rule:nonzero;"/>
        <path d="M275.537,43.85C275.537,45.415 274.268,46.683 272.703,46.683C271.138,46.683 269.869,45.415 269.869,43.85C269.869,42.285 271.138,41.016 272.703,41.016C274.268,41.016 275.537,42.285 275.537,43.85Z" style="fill-rule:nonzero;"/>
        <path d="M274.908,43.85C274.908,45.067 273.921,46.054 272.703,46.054C271.486,46.054 270.499,45.067 270.499,43.85C270.499,42.632 271.486,41.645 272.703,41.645C273.921,41.645 274.908,42.632 274.908,43.85Z" style="fill:rgb(180,83,246);fill-rule:nonzero;"/>
        <path d="M258.859,56.555C258.859,57.698 258.183,58.682 257.209,59.13C256.777,59.02 256.419,58.886 256.133,58.757C255.542,58.488 255.258,58.236 255.258,58.236C255.258,58.236 254.329,57.652 253.865,56.115L253.865,56.114C253.767,55.791 253.691,55.426 253.647,55.016C254.151,54.237 255.028,53.721 256.026,53.721C257.59,53.721 258.859,54.99 258.859,56.555Z" style="fill-rule:nonzero;"/>
        <path d="M258.23,56.555C258.23,57.737 257.301,58.702 256.133,58.757C255.542,58.488 255.258,58.236 255.258,58.236C255.258,58.236 254.329,57.652 253.865,56.115L253.865,56.114C254.069,55.108 254.959,54.35 256.026,54.35C257.243,54.35 258.23,55.338 258.23,56.555Z" style="fill:rgb(180,83,246);fill-rule:nonzero;"/>
        <path d="M262.803,64.996C262.019,64.996 261.381,65.634 261.381,66.418C261.381,67.202 262.019,67.84 262.803,67.84C263.587,67.84 264.225,67.202 264.225,66.418C264.225,65.634 263.587,64.996 262.803,64.996ZM262.803,68.266C261.782,68.266 260.954,67.438 260.954,66.418C260.954,65.399 261.782,64.57 262.803,64.57C263.822,64.57 264.652,65.399 264.652,66.418C264.652,67.438 263.822,68.266 262.803,68.266Z" style="fill-rule:nonzero;"/>
        <path d="M267.461,66.952C267.156,66.952 266.907,67.2 266.907,67.506C266.907,67.812 267.156,68.06 267.461,68.06C267.766,68.06 268.015,67.812 268.015,67.506C268.015,67.2 267.766,66.952 267.461,66.952ZM267.461,68.486C266.92,68.486 266.48,68.047 266.48,67.506C266.48,66.965 266.92,66.526 267.461,66.526C268.002,66.526 268.442,66.965 268.442,67.506C268.442,68.047 268.002,68.486 267.461,68.486Z" style="fill-rule:nonzero;"/>
        <path d="M280.703,53.332C279.749,53.332 278.973,54.109 278.973,55.062C278.973,56.016 279.749,56.792 280.703,56.792C281.657,56.792 282.433,56.016 282.433,55.062C282.433,54.109 281.657,53.332 280.703,53.332ZM280.703,57.219C279.514,57.219 278.546,56.252 278.546,55.062C278.546,53.873 279.514,52.906 280.703,52.906C281.892,52.906 282.86,53.873 282.86,55.062C282.86,56.252 281.892,57.219 280.703,57.219Z" style="fill-rule:nonzero;"/>
        <path d="M282.47,58.604C282.176,58.604 281.937,58.843 281.937,59.137C281.937,59.431 282.176,59.67 282.47,59.67C282.764,59.67 283.003,59.431 283.003,59.137C283.003,58.843 282.764,58.604 282.47,58.604ZM282.47,60.097C281.941,60.097 281.51,59.666 281.51,59.137C281.51,58.608 281.941,58.178 282.47,58.178C282.999,58.178 283.43,58.608 283.43,59.137C283.43,59.666 282.999,60.097 282.47,60.097Z" style="fill-rule:nonzero;"/>
        <path d="M293.343,46.738C292.905,46.738 292.548,47.094 292.548,47.532C292.548,47.971 292.905,48.328 293.343,48.328C293.782,48.328 294.138,47.971 294.138,47.532C294.138,47.094 293.782,46.738 293.343,46.738ZM293.343,48.754C292.67,48.754 292.122,48.206 292.122,47.532C292.122,46.859 292.67,46.311 293.343,46.311C294.017,46.311 294.565,46.859 294.565,47.532C294.565,48.206 294.017,48.754 293.343,48.754Z" style="fill-rule:nonzero;"/>
        <path d="M311.3,100.362L311.299,100.362L308.529,100.351C308.411,100.35 308.316,100.254 308.317,100.137C308.317,100.018 308.414,99.907 308.531,99.925L311.301,99.936C311.419,99.936 311.514,100.032 311.513,100.149C311.513,100.267 311.417,100.362 311.3,100.362Z" style="fill-rule:nonzero;"/>
        <path d="M311.026,59.11C311.018,59.11 311.01,59.11 311.001,59.109C310.884,59.095 310.801,58.989 310.814,58.872C310.815,58.865 310.893,58.106 310.304,57.265C309.625,56.296 308.625,55.881 308.615,55.877C308.506,55.833 308.454,55.709 308.498,55.6C308.542,55.49 308.665,55.436 308.775,55.482C308.821,55.501 309.899,55.944 310.653,57.02C311.341,58.002 311.242,58.886 311.237,58.923C311.224,59.031 311.132,59.11 311.026,59.11Z" style="fill-rule:nonzero;"/>
        <path d="M290.43,82.275C289.939,82.275 289.412,82.242 288.845,82.169C282.439,81.349 282.432,75.193 282.433,75.131C282.434,75.014 282.53,74.92 282.646,74.92L282.649,74.92C282.766,74.922 282.861,75.018 282.86,75.136C282.858,75.373 282.875,80.975 288.899,81.746C294.923,82.514 296.168,78.773 296.218,78.613C296.254,78.502 296.371,78.437 296.485,78.474C296.597,78.508 296.66,78.627 296.626,78.739C296.614,78.778 295.473,82.275 290.43,82.275Z" style="fill-rule:nonzero;"/>
        <path d="M279.488,73.849L278.03,96.549C278.03,96.549 276.836,94.802 272.328,94.499C268.389,94.235 266.798,94.749 266.248,95.089L266.488,93.809L266.488,93.799C267.808,89.789 271.498,78.819 273.108,75.929C274.868,72.779 278.528,73.579 279.328,73.799L279.488,73.849Z" style="fill:rgb(204,129,255);fill-rule:nonzero;"/>
        <path d="M278.144,96.327L278.132,96.327C278.014,96.32 277.924,96.22 277.931,96.102C278.153,92.191 278.573,84.747 278.577,84.566C278.58,84.449 278.67,84.341 278.793,84.356C278.91,84.358 279.004,84.452 279.004,84.568C279.004,84.709 278.423,94.958 278.357,96.126C278.35,96.24 278.256,96.327 278.144,96.327Z" style="fill-rule:nonzero;"/>
        <path d="M260.09,82.441C260.09,82.441 253.455,85.879 252.424,91.052C251.394,96.226 252.424,98.265 252.424,98.265C252.424,98.265 250.685,98.252 250.621,100.137C250.556,102.023 254.55,101.894 260.992,102.216C267.433,102.538 271.49,102.579 271.682,100.692C271.874,98.805 269.73,98.887 269.73,98.887C269.73,98.887 271.749,93.971 269.752,89.205C267.755,84.438 264.746,82.618 264.746,82.618L264.985,81.079C264.985,81.079 269.573,75.99 267.899,74.701C266.27,73.569 266.027,76.091 264.803,75.641C263.579,75.19 265.208,72.853 262.617,72.858C260.23,72.862 261.571,75.871 260.282,76C258.995,76.129 257.9,73.681 256.547,75.098C255.194,76.515 259.896,81.079 259.896,81.079L260.09,82.441Z" style="fill:rgb(204,129,255);fill-rule:nonzero;"/>
        <path d="M261.387,81.388C261.286,81.388 261.196,81.317 261.177,81.215C260.975,80.159 259.853,78.552 259.663,78.354C259.62,78.329 259.584,78.289 259.568,78.238C259.53,78.126 259.588,78.005 259.7,77.967C259.758,77.947 259.832,77.956 259.885,77.986C260.096,78.109 261.368,79.953 261.596,81.135C261.618,81.251 261.543,81.362 261.427,81.384C261.414,81.387 261.4,81.388 261.387,81.388Z" style="fill-rule:nonzero;"/>
        <path d="M262.441,81.388C262.341,81.388 262.252,81.318 262.232,81.216C262.048,80.285 262.595,78.521 262.618,78.446C262.654,78.334 262.775,78.271 262.885,78.307C262.998,78.342 263.06,78.462 263.025,78.574C263.02,78.591 262.487,80.309 262.65,81.133C262.673,81.249 262.598,81.361 262.482,81.384C262.469,81.386 262.454,81.388 262.441,81.388Z" style="fill-rule:nonzero;"/>
        <path d="M263.687,81.501C263.679,81.501 263.671,81.5 263.663,81.5C263.546,81.487 263.462,81.382 263.475,81.265C263.495,81.085 263.686,79.493 264.318,79.062C264.416,78.997 264.548,79.022 264.615,79.119C264.681,79.217 264.656,79.349 264.558,79.416C264.204,79.657 263.965,80.707 263.899,81.311C263.887,81.421 263.794,81.501 263.687,81.501Z" style="fill-rule:nonzero;"/>
        <path d="M259.896,81.079C259.896,81.079 260.683,80.612 262.434,80.719C264.302,80.833 264.985,81.079 264.985,81.079L264.746,82.618C264.746,82.618 263.254,82.45 262.229,82.382C261.204,82.313 260.09,82.441 260.09,82.441L259.896,81.079Z" style="fill:rgb(180,83,246);fill-rule:nonzero;"/>
        <path d="M269.731,99.101L269.723,99.101L252.417,98.479C252.299,98.475 252.207,98.375 252.211,98.258C252.216,98.14 252.329,98.056 252.432,98.052L269.593,98.669C269.848,98.05 270.877,95.209 270.17,91.283C269.372,86.851 265.441,83.412 265.402,83.378C265.313,83.301 265.303,83.166 265.38,83.077C265.457,82.987 265.592,82.978 265.681,83.055C265.847,83.199 269.765,86.625 270.59,91.208C271.414,95.785 269.984,98.851 269.923,98.979C269.888,99.054 269.813,99.101 269.731,99.101Z" style="fill-rule:nonzero;"/>
        <path d="M261.611,94.55C260.297,94.55 259.031,94.306 258.94,94.288C258.825,94.266 258.749,94.153 258.772,94.038C258.795,93.922 258.903,93.85 259.022,93.87C259.058,93.877 262.723,94.581 263.897,93.618C264.118,93.436 264.225,93.208 264.225,92.92C264.225,91.466 263.149,91.301 261.506,91.215C260.239,91.149 258.802,91.074 258.824,89.567C258.833,88.952 259.068,88.457 259.519,88.093C260.997,86.905 264.339,87.572 264.481,87.6C264.597,87.624 264.671,87.737 264.648,87.852C264.624,87.967 264.509,88.038 264.396,88.018C264.363,88.011 261.108,87.364 259.786,88.426C259.433,88.71 259.258,89.085 259.251,89.574C259.234,90.617 260.105,90.715 261.528,90.79C262.92,90.862 264.652,90.952 264.652,92.92C264.652,93.338 264.489,93.683 264.167,93.947C263.6,94.414 262.592,94.55 261.611,94.55Z" style="fill-rule:nonzero;"/>
        <path d="M261.979,95.408C261.861,95.408 261.765,95.313 261.765,95.195L261.765,86.435C261.765,86.317 261.861,86.222 261.979,86.222C262.096,86.222 262.192,86.317 262.192,86.435L262.192,95.195C262.192,95.313 262.096,95.408 261.979,95.408Z" style="fill-rule:nonzero;"/>
        <path d="M261.271,95.408C261.153,95.408 261.057,95.313 261.057,95.195L261.057,86.435C261.057,86.317 261.153,86.222 261.271,86.222C261.389,86.222 261.484,86.317 261.484,86.435L261.484,95.195C261.484,95.313 261.389,95.408 261.271,95.408Z" style="fill-rule:nonzero;"/>
        <path d="M245.789,63.085C245.936,61.435 247.929,60.679 249.199,61.744C251.222,63.441 253.607,66.269 253.607,69.11C253.607,72.406 249.07,80.673 247.695,83.526C246.829,85.116 244.238,84.69 244.504,82.218C245.086,76.831 248.253,72.029 248.49,69.589C248.708,67.333 245.563,65.632 245.789,63.085Z" style="fill:rgb(230,193,255);fill-rule:nonzero;"/>
        <path d="M318.598,69.981C317.829,68.7 316.311,67.961 314.883,69.027C313.46,70.089 313.439,72.313 313.439,73.912C313.439,75.779 313.438,77.651 313.609,79.512C313.724,80.761 313.682,82.168 314.233,83.343C314.615,84.157 315.534,84.747 316.448,84.598C317.753,84.384 318.13,82.825 318.415,81.747C318.948,79.733 319.078,77.644 319.174,75.571C319.246,74.004 319.421,72.35 318.968,70.821C318.88,70.525 318.755,70.242 318.598,69.981Z" style="fill:rgb(230,193,255);fill-rule:nonzero;"/>
        <path d="M283.217,27.445C281.534,27.419 280.055,27.962 280.513,29.949C280.83,31.326 282.16,32.16 283.405,32.614C284.946,33.175 286.537,33.693 288.098,34.262C291.807,35.614 294.824,37.193 298.814,36.964C300.786,36.851 303.746,36.12 305.631,35.51C306.84,35.12 308.178,34.767 309.175,33.939C310.036,33.224 310.599,31.853 309.412,31.168C308.251,30.499 306.384,30.813 305.123,30.883C302.979,31.003 300.835,31.163 298.687,31.028C294.514,30.765 290.484,29.58 286.607,28.094C285.848,27.804 284.475,27.465 283.217,27.445Z" style="fill:rgb(230,193,255);fill-rule:nonzero;"/>
    </g>
</svg>
