<svg width="100%" height="100%" viewBox="0 0 74 72" version="1.1" xmlns="http://www.w3.org/2000/svg" xmlns:xlink="http://www.w3.org/1999/xlink" xml:space="preserve" xmlns:serif="http://www.serif.com/" style="fill-rule:evenodd;clip-rule:evenodd;stroke-linejoin:round;stroke-miterlimit:2;">
    <g transform="matrix(1,0,0,1,-27.60531,-29.129917)">
        <path d="M27.606,58.852C27.566,57.539 29.273,56.992 29.998,58.087C31.684,60.634 33.587,64.143 33.526,66.939C33.469,69.617 31.953,73.057 30.558,75.674C29.926,76.859 28.138,76.446 28.097,75.104L27.606,58.852Z" style="fill:rgb(234,204,255);fill-rule:nonzero;"/>
        <path d="M60.899,31.519C60.675,32.397 60.911,33.326 61.426,34.072C63.199,36.638 69.16,44.67 73.918,44.059C79.573,43.332 80.409,40.181 87.323,37.606C94.237,35.032 97.616,34.715 96.451,32.289C95.118,29.515 85.304,32.59 79.603,32.289C73.901,31.988 67.631,28.53 63.78,29.221C61.855,29.567 61.136,30.586 60.899,31.519Z" style="fill:rgb(234,204,255);fill-rule:nonzero;"/>
        <path d="M98.085,75.479C100.239,80.519 101.09,90.681 96.837,96.839C92.585,102.997 85.952,101.169 80.849,99.355C76.562,97.83 72.355,98.027 67.687,98.768C66.799,98.909 65.895,99.07 64.971,99.242C59.716,100.219 52.692,101.198 44.983,100.688C44.204,100.638 43.418,100.572 42.627,100.488C40.35,100.249 38.45,99.471 36.887,98.455C32.605,95.672 30.302,90.692 30.758,85.605C30.93,83.686 31.335,81.519 32.204,79.587C34.416,74.672 35.55,72.198 34.813,63.123C34.075,54.047 25.458,47.706 35.946,36.784C46.435,25.864 58.341,37.444 67.129,44.059C75.916,50.674 80.055,45.041 83.343,42.773C86.632,40.505 96.384,36.423 99.866,44.88C103.348,53.338 95.533,61.766 94.462,64.525C93.39,67.284 95.93,70.44 98.085,75.479Z" style="fill:rgb(234,204,255);fill-rule:nonzero;"/>
        <path d="M38.042,46.67C38.042,46.67 38.268,50.29 37.056,51.53C35.523,53.097 34.824,52.833 34.824,52.833C34.824,52.833 36.594,52.991 37.452,54.011C38.31,55.032 38.246,56.909 38.246,56.909C38.246,56.909 38.31,54.549 39.329,53.476C40.348,52.403 41.26,52.377 41.26,52.377C41.26,52.377 39.913,51.993 39.144,50.752C38.4,49.55 38.042,46.67 38.042,46.67Z" style="fill:rgb(180,83,246);fill-rule:nonzero;"/>
        <path d="M40.984,57.218C40.984,57.218 41.024,59.777 39.31,60.815C41.026,61.405 41.28,63.947 41.28,63.947C41.28,63.947 41.333,61.174 43.21,60.638C41.709,60.209 40.984,57.218 40.984,57.218Z" style="fill:rgb(180,83,246);fill-rule:nonzero;"/>
        <path d="M61.095,38.152C61.095,38.152 61.135,40.711 59.421,41.748C61.137,42.338 61.391,44.881 61.391,44.881C61.391,44.881 61.444,42.107 63.321,41.571C61.819,41.142 61.095,38.152 61.095,38.152Z" style="fill:rgb(204,129,255);fill-rule:nonzero;"/>
        <path d="M80.118,69.17C80.118,71.153 78.511,72.761 76.527,72.761C74.544,72.761 72.936,71.153 72.936,69.17C72.936,67.187 74.544,65.579 76.527,65.579C78.511,65.579 80.118,67.187 80.118,69.17Z" style="fill-rule:nonzero;"/>
        <path d="M79.603,69.17C79.603,70.868 78.226,72.245 76.527,72.245C74.829,72.245 73.452,70.868 73.452,69.17C73.452,67.471 74.829,66.094 76.527,66.094C78.226,66.094 79.603,67.471 79.603,69.17Z" style="fill:rgb(180,83,246);fill-rule:nonzero;"/>
        <path d="M38.86,66.937C38.86,68.92 37.252,70.528 35.269,70.528C33.285,70.528 31.678,68.92 31.678,66.937C31.678,64.954 33.285,63.346 35.269,63.346C37.252,63.346 38.86,64.954 38.86,66.937Z" style="fill-rule:nonzero;"/>
        <path d="M38.344,66.937C38.344,68.635 36.967,70.012 35.269,70.012C33.57,70.012 32.193,68.635 32.193,66.937C32.193,65.238 33.57,63.861 35.269,63.861C36.967,63.861 38.344,65.238 38.344,66.937Z" style="fill:rgb(180,83,246);fill-rule:nonzero;"/>
        <path d="M68.026,67.346C67.973,67.346 67.92,67.326 67.88,67.285C67.803,67.206 67.802,67.081 67.877,67.001C68.107,66.71 70.436,62.113 71.949,59.086C71.983,59.016 72.055,58.972 72.132,58.972L79.502,58.972L83.307,54.042C83.351,53.985 83.423,53.954 83.494,53.964C83.566,53.973 83.628,54.019 83.657,54.085L86.746,61.143L95.108,42.188L93.051,43.813C92.964,43.882 92.835,43.868 92.763,43.779C92.692,43.69 92.708,43.561 92.796,43.491L95.501,41.356C95.575,41.298 95.679,41.297 95.753,41.354C95.828,41.412 95.853,41.513 95.815,41.599L86.933,61.735C86.9,61.809 86.826,61.857 86.746,61.857C86.664,61.857 86.59,61.809 86.558,61.734L83.421,54.566L79.766,59.302C79.726,59.352 79.666,59.382 79.603,59.382L72.259,59.382C71.289,61.322 68.414,67.047 68.169,67.287C68.13,67.327 68.078,67.346 68.026,67.346Z" style="fill-rule:nonzero;"/>
        <path d="M95.628,45.026C95.515,45.026 95.423,44.934 95.423,44.821L95.423,41.516C95.423,41.403 95.515,41.312 95.628,41.312C95.741,41.312 95.833,41.403 95.833,41.516L95.833,44.821C95.833,44.934 95.741,45.026 95.628,45.026Z" style="fill-rule:nonzero;"/>
        <rect x="83.256" y="94.406" width="1.307" height="2.433" style="fill:rgb(204,129,255);fill-rule:nonzero;"/>
        <rect x="85.232" y="91.345" width="1.307" height="5.494" style="fill:rgb(204,129,255);fill-rule:nonzero;"/>
        <rect x="89.547" y="88.326" width="1.307" height="8.513" style="fill:rgb(204,129,255);fill-rule:nonzero;"/>
        <rect x="87.323" y="92.736" width="1.307" height="4.103" style="fill:rgb(204,129,255);fill-rule:nonzero;"/>
        <path d="M42.267,38.895C41.536,38.895 40.942,39.49 40.942,40.221C40.942,40.953 41.536,41.547 42.267,41.547C42.999,41.547 43.594,40.953 43.594,40.221C43.594,39.49 42.999,38.895 42.267,38.895ZM42.267,41.957C41.31,41.957 40.532,41.178 40.532,40.221C40.532,39.264 41.31,38.486 42.267,38.486C43.224,38.486 44.003,39.264 44.003,40.221C44.003,41.178 43.224,41.957 42.267,41.957Z" style="fill-rule:nonzero;"/>
        <path d="M46.925,43.453C46.138,43.453 45.497,44.093 45.497,44.881C45.497,45.668 46.138,46.309 46.925,46.309C47.713,46.309 48.353,45.668 48.353,44.881C48.353,44.093 47.713,43.453 46.925,43.453ZM46.925,46.718C45.912,46.718 45.088,45.894 45.088,44.881C45.088,43.868 45.912,43.043 46.925,43.043C47.938,43.043 48.763,43.868 48.763,44.881C48.763,45.894 47.938,46.718 46.925,46.718Z" style="fill-rule:nonzero;"/>
        <path d="M42.574,47.113C42.546,47.113 42.517,47.107 42.489,47.094C42.386,47.047 42.341,46.925 42.389,46.822L46.457,37.994C46.505,37.891 46.625,37.847 46.728,37.893C46.832,37.941 46.876,38.062 46.828,38.165L42.76,46.993C42.725,47.069 42.652,47.113 42.574,47.113Z" style="fill-rule:nonzero;"/>
        <path d="M93.601,81.487C92.941,81.487 92.404,82.024 92.404,82.685C92.404,83.345 92.941,83.882 93.601,83.882C94.261,83.882 94.799,83.345 94.799,82.685C94.799,82.024 94.261,81.487 93.601,81.487ZM93.601,84.292C92.715,84.292 91.994,83.571 91.994,82.685C91.994,81.798 92.715,81.078 93.601,81.078C94.487,81.078 95.208,81.798 95.208,82.685C95.208,83.571 94.487,84.292 93.601,84.292Z" style="fill-rule:nonzero;"/>
        <path d="M53.251,43.501C52.944,43.501 52.694,43.751 52.694,44.059C52.694,44.366 52.944,44.616 53.251,44.616C53.559,44.616 53.809,44.366 53.809,44.059C53.809,43.751 53.559,43.501 53.251,43.501ZM53.251,45.026C52.718,45.026 52.284,44.592 52.284,44.059C52.284,43.525 52.718,43.092 53.251,43.092C53.785,43.092 54.219,43.525 54.219,44.059C54.219,44.592 53.785,45.026 53.251,45.026Z" style="fill-rule:nonzero;"/>
        <path d="M70.986,54.331C70.684,54.331 70.439,54.577 70.439,54.879C70.439,55.181 70.684,55.426 70.986,55.426C71.289,55.426 71.534,55.181 71.534,54.879C71.534,54.577 71.289,54.331 70.986,54.331ZM70.986,55.836C70.458,55.836 70.029,55.407 70.029,54.879C70.029,54.351 70.458,53.922 70.986,53.922C71.514,53.922 71.943,54.351 71.943,54.879C71.943,55.407 71.514,55.836 70.986,55.836Z" style="fill-rule:nonzero;"/>
        <path d="M90.854,63.327C90.416,63.327 90.06,63.683 90.06,64.121C90.06,64.559 90.416,64.915 90.854,64.915C91.292,64.915 91.648,64.559 91.648,64.121C91.648,63.683 91.292,63.327 90.854,63.327ZM90.854,65.325C90.19,65.325 89.651,64.785 89.651,64.121C89.651,63.458 90.19,62.918 90.854,62.918C91.518,62.918 92.058,63.458 92.058,64.121C92.058,64.785 91.518,65.325 90.854,65.325Z" style="fill-rule:nonzero;"/>
        <path d="M92.93,59.83C92.515,59.83 92.178,60.168 92.178,60.583C92.178,60.998 92.515,61.336 92.93,61.336C93.345,61.336 93.682,60.998 93.682,60.583C93.682,60.168 93.345,59.83 92.93,59.83ZM92.93,61.745C92.289,61.745 91.768,61.224 91.768,60.583C91.768,59.942 92.289,59.421 92.93,59.421C93.57,59.421 94.092,59.942 94.092,60.583C94.092,61.224 93.57,61.745 92.93,61.745Z" style="fill-rule:nonzero;"/>
        <path d="M78.794,52.339L75.431,52.339L75.431,49.024C75.431,49.024 75.591,46.934 74.876,46.451C73.544,45.552 72.286,43.948 72.146,41.883C72.006,39.818 73.099,36.181 77.533,36.322C81.574,36.452 83.557,41.132 81.502,43.981C79.447,46.829 78.9,46.477 78.84,47.142C78.738,48.259 78.794,52.339 78.794,52.339Z" style="fill:white;fill-rule:nonzero;"/>
        <path d="M75.636,52.135L78.587,52.135C78.576,51.281 78.547,48.106 78.636,47.123C78.669,46.756 78.833,46.616 79.132,46.361C79.497,46.049 80.176,45.47 81.336,43.861C82.277,42.557 82.379,40.765 81.602,39.186C80.811,37.578 79.287,36.583 77.527,36.527C75.917,36.477 74.63,36.93 73.717,37.877C72.589,39.047 72.271,40.706 72.35,41.869C72.468,43.595 73.455,45.245 74.99,46.281C75.782,46.815 75.653,48.813 75.635,49.039L75.636,52.135ZM78.794,52.544L75.431,52.544C75.319,52.544 75.227,52.453 75.227,52.339L75.227,49.024C75.285,48.246 75.21,46.923 74.761,46.62C73.121,45.514 72.067,43.748 71.943,41.897C71.857,40.646 72.201,38.859 73.422,37.593C74.42,36.559 75.804,36.064 77.539,36.118C79.454,36.179 81.11,37.259 81.969,39.005C82.813,40.721 82.698,42.673 81.669,44.1C80.479,45.75 79.775,46.35 79.398,46.672C79.115,46.913 79.061,46.965 79.043,47.16C78.945,48.254 78.998,52.296 78.999,52.337C78.999,52.391 78.978,52.444 78.94,52.483C78.901,52.522 78.848,52.544 78.794,52.544Z" style="fill-rule:nonzero;"/>
        <path d="M80.295,48.85L80.292,48.85C78.04,48.814 74.377,48.779 74.018,48.836C73.945,48.865 73.857,48.85 73.798,48.79C73.718,48.71 73.718,48.581 73.798,48.501C73.877,48.422 73.963,48.34 80.298,48.441C80.411,48.443 80.501,48.535 80.5,48.649C80.498,48.761 80.407,48.85 80.295,48.85Z" style="fill-rule:nonzero;"/>
        <path d="M80.295,50.652L74.123,50.652C74.01,50.652 73.918,50.561 73.918,50.447C73.918,50.334 74.01,50.243 74.123,50.243L80.295,50.243C80.408,50.243 80.5,50.334 80.5,50.447C80.5,50.561 80.408,50.652 80.295,50.652Z" style="fill-rule:nonzero;"/>
        <path d="M75.838,43.676C75.826,43.676 75.814,43.675 75.801,43.673C75.69,43.652 75.616,43.546 75.636,43.435L75.99,41.48C76.004,41.399 76.066,41.334 76.147,41.316C76.227,41.299 76.312,41.331 76.358,41.398L76.72,41.911L77.058,41.403C77.095,41.348 77.156,41.314 77.223,41.312C77.287,41.303 77.353,41.34 77.392,41.394L77.821,41.968L78.087,41.723C78.141,41.673 78.217,41.657 78.287,41.677C78.357,41.699 78.409,41.756 78.426,41.828L78.72,43.124C78.745,43.233 78.676,43.343 78.566,43.368C78.459,43.396 78.345,43.325 78.321,43.214L78.105,42.263L77.931,42.424C77.888,42.463 77.83,42.481 77.773,42.477C77.715,42.471 77.662,42.442 77.628,42.396L77.238,41.872L76.895,42.387C76.857,42.443 76.799,42.453 76.724,42.478C76.658,42.478 76.596,42.445 76.557,42.391L76.305,42.034L76.039,43.507C76.022,43.607 75.935,43.676 75.838,43.676Z" style="fill:rgb(180,83,246);fill-rule:nonzero;"/>
        <path d="M70.986,42.011C70.96,42.011 70.933,42.006 70.907,41.995L69.473,41.394C69.369,41.351 69.319,41.231 69.363,41.126C69.406,41.022 69.528,40.972 69.631,41.017L71.065,41.617C71.169,41.661 71.219,41.781 71.175,41.885C71.142,41.964 71.066,42.011 70.986,42.011Z" style="fill:rgb(180,83,246);fill-rule:nonzero;"/>
        <path d="M72.135,37.606C72.087,37.606 72.039,37.59 72,37.556L70.585,36.322C70.499,36.247 70.491,36.118 70.565,36.033C70.64,35.947 70.77,35.939 70.854,36.013L72.269,37.247C72.354,37.322 72.363,37.451 72.289,37.536C72.248,37.583 72.191,37.606 72.135,37.606Z" style="fill:rgb(180,83,246);fill-rule:nonzero;"/>
        <path d="M76.532,35.31C76.43,35.31 76.342,35.235 76.329,35.132L76.116,33.53C76.102,33.418 76.18,33.315 76.292,33.3C76.412,33.282 76.507,33.364 76.522,33.476L76.735,35.078C76.749,35.19 76.671,35.293 76.559,35.308C76.549,35.309 76.541,35.31 76.532,35.31Z" style="fill:rgb(180,83,246);fill-rule:nonzero;"/>
        <path d="M82.05,37.257C82.016,37.257 81.98,37.248 81.949,37.23C81.85,37.174 81.817,37.049 81.873,36.951C82.012,36.707 83.034,35.651 83.238,35.442C83.317,35.361 83.447,35.359 83.528,35.438C83.609,35.517 83.61,35.646 83.531,35.727C83.04,36.232 82.311,37.008 82.228,37.154C82.19,37.22 82.121,37.257 82.05,37.257Z" style="fill:rgb(180,83,246);fill-rule:nonzero;"/>
        <path d="M84.281,40.427C83.727,40.427 83.709,40.424 83.696,40.422C83.584,40.404 83.508,40.3 83.525,40.188C83.542,40.082 83.624,39.998 83.744,40.016C83.835,40.02 84.878,40.017 85.561,40.015L85.562,40.015C85.675,40.015 85.767,40.107 85.767,40.22C85.767,40.332 85.676,40.424 85.563,40.425C84.961,40.426 84.555,40.427 84.281,40.427Z" style="fill:rgb(180,83,246);fill-rule:nonzero;"/>
        <path d="M77.059,49.05L77.056,49.05C76.961,49.049 76.88,48.983 76.859,48.891L75.124,41.251C75.099,41.141 75.168,41.031 75.278,41.006C75.388,40.981 75.499,41.05 75.523,41.16L77.072,47.976L78.827,41.154C78.855,41.045 78.964,40.979 79.077,41.007C79.187,41.036 79.252,41.147 79.224,41.257L77.257,48.897C77.234,48.987 77.152,49.05 77.059,49.05Z" style="fill-rule:nonzero;"/>
        <path d="M64.304,61.206C64.304,61.206 65.021,59.178 66.096,59.916C67.172,60.655 67.044,62.234 65.549,63.688C64.054,65.142 63.78,65.397 63.78,65.397L64.304,61.206Z" style="fill:white;fill-rule:nonzero;"/>
        <path d="M64.504,61.255L64.054,64.851C64.319,64.596 64.742,64.187 65.406,63.541C66.222,62.747 66.655,61.87 66.592,61.133C66.555,60.698 66.344,60.335 65.981,60.085C65.804,59.963 65.637,59.933 65.472,59.984C65.003,60.137 64.622,60.934 64.504,61.255ZM63.78,65.602C63.748,65.602 63.716,65.595 63.687,65.58C63.61,65.541 63.566,65.457 63.577,65.372L64.101,61.181C64.102,61.167 64.106,61.152 64.111,61.138C64.129,61.086 64.576,59.846 65.345,59.595C65.637,59.499 65.928,59.553 66.212,59.748C66.68,60.07 66.953,60.536 67,61.099C67.073,61.958 66.596,62.955 65.691,63.835C64.194,65.291 63.92,65.547 63.92,65.547C63.881,65.583 63.83,65.602 63.78,65.602Z" style="fill-rule:nonzero;"/>
        <path d="M48.028,61.206C48.028,61.206 47.311,59.178 46.236,59.916C45.16,60.655 45.288,62.234 46.783,63.688C48.278,65.142 48.552,65.397 48.552,65.397L48.028,61.206Z" style="fill:white;fill-rule:nonzero;"/>
        <path d="M46.706,59.96C46.591,59.96 46.474,60.001 46.352,60.085C45.988,60.335 45.777,60.697 45.739,61.133C45.677,61.869 46.11,62.747 46.925,63.541C47.59,64.187 48.013,64.596 48.277,64.851L47.828,61.255C47.71,60.933 47.329,60.137 46.86,59.984C46.808,59.968 46.757,59.96 46.706,59.96ZM48.552,65.602C48.501,65.602 48.451,65.583 48.412,65.547C48.412,65.547 48.137,65.291 46.641,63.835C45.735,62.955 45.259,61.957 45.331,61.098C45.379,60.536 45.652,60.069 46.12,59.748C46.401,59.555 46.702,59.502 46.987,59.595C47.756,59.845 48.202,61.086 48.221,61.138C48.225,61.152 48.229,61.167 48.231,61.181L48.755,65.372C48.765,65.457 48.721,65.541 48.644,65.58C48.616,65.595 48.584,65.602 48.552,65.602Z" style="fill-rule:nonzero;"/>
        <path d="M64.5,60.648C64.146,65.97 63.312,68.64 60.324,69.852C60.121,69.93 59.905,70.007 59.677,70.08C57.583,70.721 54.775,70.463 52.549,69.738C51.031,69.246 49.789,68.538 49.22,67.746C47.81,65.796 47.81,60.54 47.81,60.54C47.81,60.54 47.408,54.421 48.764,54.313C50.119,54.205 62.496,54.361 62.496,54.361C62.496,54.361 64.878,54.955 64.5,60.648Z" style="fill:white;fill-rule:nonzero;"/>
        <path d="M64.5,60.648L64.505,60.648L64.5,60.648ZM51.601,54.48C50.196,54.48 49.123,54.49 48.78,54.517C47.983,54.58 47.853,58.07 48.013,60.527C48.014,60.592 48.03,65.752 49.385,67.626C49.905,68.348 51.082,69.047 52.612,69.543C55.038,70.334 57.722,70.464 59.617,69.883C59.839,69.814 60.051,69.737 60.252,69.66C63.243,68.447 63.961,65.669 64.296,60.635C64.656,55.219 62.467,54.565 62.445,54.559L62.432,54.559C62.098,54.559 55.544,54.48 51.601,54.48ZM56.929,70.651C55.497,70.651 53.944,70.408 52.486,69.932C50.851,69.402 49.631,68.668 49.053,67.865C47.622,65.885 47.605,60.758 47.605,60.541C47.536,59.499 47.265,54.227 48.748,54.109C50.097,54.002 61.994,54.15 62.499,54.156C62.65,54.188 65.089,54.864 64.704,60.662C64.358,65.865 63.598,68.745 60.401,70.041C60.19,70.122 59.971,70.201 59.739,70.275C58.917,70.527 57.954,70.651 56.929,70.651Z" style="fill-rule:nonzero;"/>
        <path d="M86.746,81.236L80.242,90.815C80.242,90.815 78.247,93.978 76.601,93.891C74.956,93.803 68.052,85.228 68.052,85.228L67.719,98.768C66.831,98.909 65.927,99.07 65.002,99.242C59.747,100.219 52.723,101.198 45.014,100.688L44.746,84.335L52.467,70.935L60.7,70.935C60.7,70.935 62.314,71.113 64.424,71.906C66.001,72.498 67.855,73.434 69.52,74.895C74.033,78.858 77.299,84.976 77.299,84.976L82.287,77.745L86.746,81.236Z" style="fill:rgb(180,83,246);fill-rule:nonzero;"/>
        <path d="M53.387,92.415C53.387,92.415 53.951,91.992 56.168,91.697C58.386,91.402 60.386,91.159 60.386,91.159L60.963,92.338L57.527,92.736L53.387,92.415Z" style="fill:white;fill-rule:nonzero;"/>
        <path d="M54.275,92.278L57.543,92.532L60.652,92.168L60.266,91.38C59.769,91.441 58.059,91.652 56.195,91.9C55.308,92.018 54.691,92.157 54.275,92.278ZM57.55,92.939L53.37,92.619C53.286,92.613 53.214,92.554 53.19,92.472C53.166,92.39 53.195,92.302 53.263,92.251C53.325,92.205 53.935,91.788 56.141,91.494C58.361,91.199 60.361,90.956 60.361,90.956C60.445,90.943 60.531,90.991 60.569,91.069L61.147,92.248C61.176,92.308 61.175,92.378 61.143,92.436C61.111,92.494 61.052,92.534 60.986,92.542L57.55,92.939Z" style="fill-rule:nonzero;"/>
        <path d="M64.541,53.362C64.541,53.362 65.588,54.382 65.706,56.615C65.824,58.848 64.455,60.536 64.427,60.453C64.399,60.371 62.354,55.322 62.354,55.322L64.541,53.362Z" style="fill-rule:nonzero;"/>
        <path d="M54.884,66.354C54.802,66.129 55.015,65.909 55.243,65.985C55.665,66.126 56.359,66.301 57.254,66.325C57.988,66.346 58.471,66.313 58.776,66.273C59,66.244 59.167,66.474 59.07,66.678C58.836,67.171 58.262,67.829 56.877,67.668C55.553,67.513 55.064,66.847 54.884,66.354Z" style="fill:white;fill-rule:nonzero;"/>
        <path d="M55.076,66.284C55.245,66.745 55.698,67.324 56.901,67.464C58.122,67.609 58.658,67.068 58.885,66.591C58.903,66.553 58.889,66.523 58.878,66.508C58.868,66.494 58.838,66.468 58.803,66.476C58.396,66.529 57.875,66.546 57.248,66.53C56.331,66.505 55.616,66.325 55.177,66.179C55.136,66.165 55.107,66.185 55.094,66.199C55.081,66.212 55.061,66.242 55.076,66.284ZM57.285,67.897C57.15,67.897 57.006,67.889 56.853,67.871C55.443,67.706 54.9,66.994 54.692,66.425C54.627,66.245 54.668,66.049 54.801,65.913C54.934,65.777 55.129,65.73 55.308,65.791C55.72,65.928 56.393,66.097 57.26,66.121C58.01,66.141 58.485,66.104 58.749,66.07C58.933,66.045 59.104,66.123 59.209,66.268C59.315,66.413 59.332,66.604 59.255,66.766C59.046,67.207 58.521,67.897 57.285,67.897Z" style="fill-rule:nonzero;"/>
        <path d="M54.235,61.859C54.235,62.45 53.939,62.928 53.574,62.928C53.209,62.928 52.914,62.45 52.914,61.859C52.914,61.268 53.209,60.79 53.574,60.79C53.939,60.79 54.235,61.268 54.235,61.859Z" style="fill-rule:nonzero;"/>
        <path d="M52.028,61.364C51.956,61.364 51.885,61.325 51.848,61.255C51.795,61.155 51.833,61.031 51.932,60.978C51.96,60.963 52.64,60.606 53.569,60.585C54.507,60.57 54.86,60.794 54.898,60.821C54.99,60.886 55.013,61.013 54.948,61.106C54.884,61.198 54.758,61.221 54.666,61.159C54.654,61.151 54.355,60.975 53.579,60.994C52.746,61.013 52.131,61.336 52.124,61.34C52.094,61.356 52.061,61.364 52.028,61.364Z" style="fill-rule:nonzero;"/>
        <path d="M51.823,59.693C51.787,59.693 51.75,59.684 51.717,59.664C51.621,59.605 51.589,59.48 51.648,59.384C51.651,59.378 52.022,58.782 53.404,58.23C54.237,57.897 54.804,57.774 55.005,57.884C55.103,57.939 55.139,58.064 55.085,58.162C55.03,58.262 54.905,58.297 54.807,58.243C54.825,58.254 54.561,58.208 53.556,58.61C52.506,59.03 52.06,59.494 51.998,59.595C51.96,59.658 51.892,59.693 51.823,59.693Z" style="fill-rule:nonzero;"/>
        <path d="M60.148,61.859C60.148,62.45 60.444,62.928 60.809,62.928C61.174,62.928 61.469,62.45 61.469,61.859C61.469,61.268 61.174,60.79 60.809,60.79C60.444,60.79 60.148,61.268 60.148,61.859Z" style="fill-rule:nonzero;"/>
        <path d="M62.354,61.364C62.321,61.364 62.289,61.356 62.258,61.34C62.252,61.336 61.632,61.013 60.804,60.994C59.996,60.979 59.72,61.157 59.717,61.159C59.623,61.219 59.497,61.194 59.435,61.101C59.373,61.009 59.395,60.885 59.486,60.821C59.524,60.794 59.88,60.569 60.813,60.585C61.742,60.606 62.422,60.963 62.45,60.978C62.55,61.031 62.588,61.155 62.535,61.255C62.498,61.324 62.427,61.364 62.354,61.364Z" style="fill-rule:nonzero;"/>
        <path d="M62.56,59.694C62.491,59.694 62.423,59.658 62.385,59.595C62.322,59.494 61.877,59.03 60.827,58.61C59.812,58.204 59.554,58.253 59.543,58.257C59.444,58.31 59.336,58.268 59.281,58.169C59.227,58.07 59.28,57.939 59.378,57.884C59.576,57.774 60.146,57.897 60.979,58.23C62.36,58.782 62.732,59.378 62.735,59.384C62.793,59.48 62.762,59.605 62.665,59.664C62.632,59.684 62.596,59.694 62.56,59.694Z" style="fill-rule:nonzero;"/>
        <path d="M56.877,64.853C56.768,64.853 56.678,64.767 56.672,64.658C56.666,64.545 56.753,64.449 56.867,64.444C58.094,64.384 58.398,64.081 58.464,63.983L57.245,59.544C57.216,59.435 57.28,59.322 57.388,59.292C57.502,59.263 57.611,59.327 57.64,59.435L58.878,63.943C58.885,63.971 58.887,64 58.883,64.028C58.865,64.15 58.684,64.765 56.886,64.852C56.883,64.853 56.88,64.853 56.877,64.853Z" style="fill-rule:nonzero;"/>
        <path d="M52.467,70.935L51.677,76.874L50.647,84.611C50.647,84.611 45.628,84.39 44.746,84.335C43.864,84.28 41.547,89.795 41.547,89.795L49.378,92.221L49.212,97.24L44.415,96.854C39.617,96.468 34.212,94.758 33.33,92.332C32.448,89.905 38.789,79.813 41.988,76.173C43.695,74.23 46.566,72.869 48.871,72.022C50.783,71.319 52.307,70.97 52.454,70.937L52.467,70.935Z" style="fill:rgb(180,83,246);fill-rule:nonzero;"/>
        <path d="M66.674,90.815C66.674,92.798 65.066,94.406 63.083,94.406C61.099,94.406 59.492,92.798 59.492,90.815C59.492,88.832 61.099,87.224 63.083,87.224C65.066,87.224 66.674,88.832 66.674,90.815Z" style="fill-rule:nonzero;"/>
        <path d="M66.158,90.815C66.158,92.514 64.781,93.891 63.083,93.891C61.384,93.891 60.007,92.514 60.007,90.815C60.007,89.117 61.384,87.74 63.083,87.74C64.781,87.74 66.158,89.117 66.158,90.815Z" style="fill:rgb(230,193,255);fill-rule:nonzero;"/>
        <path d="M49.867,92.792C49.867,92.792 51.039,93.17 52.466,92.541C53.894,91.912 56.567,92.541 56.567,92.541L59.713,92.905C59.713,92.905 61.191,91.754 61.694,91.974C62.198,92.195 60.688,93.704 60.185,93.862C59.681,94.019 57.259,94.082 57.259,94.082C57.259,94.082 61.915,94.051 62.009,94.68C62.103,95.309 57.071,95.403 57.071,95.403C57.071,95.403 61.443,95.686 61.411,96.347C61.38,97.007 57.071,96.63 57.071,96.63C57.071,96.63 60.625,96.944 60.594,97.448C60.562,97.951 56.681,97.583 56.348,97.594C56.03,97.605 53.642,97.982 52.919,97.385C52.195,96.787 51.409,96.661 51.409,96.661L49.647,96.661L49.867,92.792Z" style="fill:white;fill-rule:nonzero;"/>
        <path d="M49.864,96.457L51.409,96.457C51.475,96.465 52.291,96.601 53.049,97.227C53.594,97.676 55.436,97.481 56.042,97.417C56.184,97.402 56.289,97.391 56.341,97.389C56.419,97.393 56.63,97.4 56.934,97.419C58.825,97.537 59.96,97.537 60.318,97.422C59.924,97.206 58.398,96.953 57.052,96.834C56.94,96.824 56.857,96.724 56.866,96.612C56.877,96.5 56.978,96.419 57.088,96.426L57.089,96.426C59.144,96.605 61.032,96.553 61.215,96.312C61.065,96.088 59.163,95.744 57.057,95.607C56.948,95.6 56.863,95.508 56.866,95.398C56.868,95.289 56.957,95.2 57.066,95.198C59.095,95.16 61.408,94.956 61.782,94.686C61.462,94.43 59.225,94.282 57.261,94.287L57.26,94.287C57.148,94.287 57.057,94.197 57.055,94.085C57.053,93.973 57.142,93.88 57.254,93.877C57.92,93.86 59.733,93.788 60.124,93.666C60.546,93.534 61.63,92.401 61.591,92.131C61.389,92.065 60.508,92.546 59.839,93.066C59.796,93.099 59.736,93.112 59.69,93.108L56.544,92.744C56.494,92.734 53.899,92.134 52.548,92.728C51.447,93.213 50.495,93.13 50.057,93.047L49.864,96.457ZM54.495,97.926C53.771,97.926 53.14,97.833 52.788,97.542C52.12,96.991 51.383,96.864 51.376,96.863L49.647,96.866C49.591,96.866 49.537,96.843 49.498,96.802C49.46,96.761 49.439,96.706 49.442,96.65L49.662,92.781C49.666,92.717 49.699,92.659 49.751,92.624C49.803,92.588 49.869,92.578 49.929,92.597C49.94,92.6 51.05,92.941 52.383,92.353C53.856,91.705 56.502,92.315 56.614,92.342L59.654,92.692C60.088,92.361 61.236,91.554 61.777,91.787C61.928,91.853 62.009,91.989 62,92.161C61.97,92.7 60.92,93.707 60.39,93.993C61.409,94.102 62.159,94.301 62.211,94.649C62.225,94.744 62.197,94.839 62.13,94.918C61.884,95.21 60.816,95.379 59.697,95.477C60.805,95.664 61.635,95.942 61.616,96.356C61.613,96.427 61.586,96.532 61.478,96.626C61.275,96.804 60.761,96.89 60.149,96.925C60.817,97.151 60.804,97.363 60.797,97.461C60.777,97.79 60.341,97.914 59.187,97.918C58.407,97.922 57.507,97.865 56.909,97.828C56.624,97.81 56.42,97.794 56.355,97.799C56.308,97.8 56.214,97.811 56.084,97.824C55.552,97.881 55.001,97.926 54.495,97.926Z" style="fill-rule:nonzero;"/>
        <path d="M91.702,70.887C90.68,70.033 89.554,69.534 89.551,69.533C89.549,69.537 88.018,72.072 87.445,71.544C86.872,71.014 86.77,67.658 85.378,67.167C85.374,67.165 85.37,67.164 85.366,67.163C85.035,67.051 84.733,67.401 84.882,67.717C85.114,68.21 85.407,68.943 85.419,69.52C85.426,69.857 85.416,70.125 85.399,70.332C85.359,70.836 85.317,71.339 85.287,71.844C85.26,72.284 85.216,72.843 85.153,73.45C85.073,74.215 84.911,74.884 85.138,75.422C85.018,75.753 84.781,76.291 84.423,76.59C85.517,77.624 88.034,79.586 88.034,79.586C88.034,79.586 88.415,78.579 88.818,78.106C88.963,78.174 89.143,78.222 89.389,78.239C90.862,78.341 94.094,73.571 94.097,73.567C94.095,73.564 92.725,71.74 91.702,70.887Z" style="fill:white;fill-rule:nonzero;"/>
        <path d="M84.72,76.587C85.656,77.442 87.351,78.789 87.947,79.257C88.091,78.917 88.367,78.32 88.662,77.973C88.723,77.903 88.822,77.881 88.905,77.921C89.04,77.983 89.203,78.021 89.404,78.035C89.416,78.036 89.428,78.036 89.44,78.036C90.484,78.036 92.792,75.119 93.845,73.574C93.53,73.164 92.426,71.758 91.571,71.044C90.81,70.409 89.978,69.968 89.63,69.796C89.321,70.287 88.378,71.705 87.722,71.813C87.563,71.841 87.42,71.798 87.306,71.694C87.049,71.457 86.901,70.871 86.714,70.13C86.432,69.017 86.082,67.632 85.31,67.36C85.195,67.32 85.125,67.383 85.101,67.412C85.08,67.435 85.016,67.52 85.068,67.63C85.314,68.157 85.611,68.911 85.624,69.516C85.63,69.82 85.623,70.1 85.603,70.348L85.586,70.558C85.552,70.991 85.517,71.423 85.491,71.857C85.469,72.217 85.428,72.79 85.357,73.471C85.34,73.627 85.321,73.779 85.301,73.927C85.229,74.483 85.167,74.964 85.327,75.343C85.347,75.39 85.349,75.444 85.33,75.492C85.208,75.83 85.008,76.269 84.72,76.587ZM88.034,79.791C87.989,79.791 87.944,79.776 87.908,79.748C87.883,79.728 85.37,77.767 84.282,76.739C84.239,76.699 84.216,76.642 84.218,76.584C84.219,76.525 84.247,76.47 84.291,76.433C84.521,76.242 84.742,75.885 84.919,75.423C84.754,74.961 84.823,74.432 84.895,73.874C84.914,73.73 84.933,73.581 84.949,73.429C85.02,72.754 85.061,72.188 85.081,71.832C85.109,71.395 85.144,70.961 85.178,70.525L85.195,70.316C85.214,70.081 85.221,69.815 85.214,69.525C85.203,68.991 84.927,68.295 84.697,67.804C84.594,67.583 84.632,67.323 84.795,67.139C84.958,66.957 85.203,66.891 85.432,66.969C86.426,67.319 86.806,68.822 87.111,70.029C87.261,70.624 87.416,71.238 87.584,71.393C87.597,71.406 87.612,71.415 87.651,71.41C88.05,71.353 88.9,70.216 89.376,69.427C89.429,69.339 89.541,69.304 89.636,69.347C89.756,69.4 90.836,69.897 91.834,70.729C92.882,71.606 94.257,73.437 94.267,73.453C94.309,73.516 94.313,73.598 94.277,73.665C94.249,73.714 90.976,78.56 89.375,78.444C89.191,78.431 89.029,78.401 88.885,78.352C88.542,78.827 88.229,79.65 88.225,79.659C88.203,79.719 88.151,79.766 88.089,79.783C88.071,79.789 88.052,79.791 88.034,79.791Z" style="fill-rule:nonzero;"/>
        <path d="M83.194,75.492L81.397,77.893L87.255,82.283L89.068,79.976L83.194,75.492Z" style="fill:rgb(213,150,255);fill-rule:nonzero;"/>
        <path d="M56.953,73.537L52.467,78.241L51.677,76.874L48.871,72.022C50.783,71.319 52.307,70.97 52.454,70.937L52.467,70.935L56.953,73.537Z" style="fill:rgb(180,83,246);fill-rule:nonzero;"/>
        <path d="M64.424,71.906C64.424,71.906 61.224,77.988 61.224,78.051C61.224,78.113 56.953,73.537 56.953,73.537L60.325,70.935L60.7,70.935C60.7,70.935 62.314,71.113 64.424,71.906Z" style="fill:rgb(180,83,246);fill-rule:nonzero;"/>
        <path d="M54.285,76.334L55.29,77.421L58.246,77.421L59.378,76.125L56.953,73.537L54.285,76.334Z" style="fill:rgb(207,136,255);fill-rule:nonzero;"/>
        <path d="M55.29,77.421L54.136,84.32L56.359,89.521L59.756,84.087L58.246,77.421L55.29,77.421Z" style="fill:rgb(217,160,255);fill-rule:nonzero;"/>
        <path d="M46.926,72.817L56.166,90.815L56.832,86.059L48.975,71.984L46.926,72.817Z" style="fill:rgb(230,193,255);fill-rule:nonzero;"/>
        <path d="M56.166,86.225L64.19,71.776L66.813,73.004L56.166,90.815L56.166,86.225Z" style="fill:rgb(230,193,255);fill-rule:nonzero;"/>
        <path d="M49.076,51.921C49.076,51.921 47.07,50.729 46.962,53.764C46.854,56.799 47.829,60.889 47.829,60.889C47.829,60.889 49.889,60.701 50.376,57.937L50.864,55.173C50.864,55.173 52.273,56.961 53.899,56.203C55.525,55.444 55.417,54.848 55.417,54.848C55.417,54.848 60.024,56.907 63.763,54.685C67.503,52.463 67.123,50.729 64.251,49.753C61.378,48.778 50.105,49.753 50.105,49.753C50.105,49.753 48.1,50.024 49.076,51.921Z" style="fill-rule:nonzero;"/>
        <path d="M86.746,76.671C86.73,76.671 86.714,76.669 86.698,76.665C86.652,76.654 85.566,76.385 85.06,75.603C84.57,74.845 84.983,72.931 85.032,72.715C85.057,72.605 85.163,72.533 85.277,72.561C85.387,72.586 85.457,72.695 85.432,72.806C85.309,73.345 85.067,74.86 85.404,75.381C85.82,76.024 86.784,76.265 86.794,76.267C86.903,76.294 86.971,76.405 86.945,76.514C86.921,76.608 86.838,76.671 86.746,76.671Z" style="fill-rule:nonzero;"/>
        <path d="M89.459,78.445C89.433,78.445 89.408,78.445 89.381,78.444C88.348,78.404 87.979,77.738 87.93,77.39C87.913,77.279 87.991,77.175 88.103,77.159C88.222,77.144 88.318,77.219 88.334,77.33C88.34,77.364 88.46,77.999 89.397,78.035C90.365,78.067 90.905,77.167 90.927,77.128C90.982,77.03 91.107,76.993 91.205,77.049C91.304,77.103 91.339,77.227 91.285,77.326C91.26,77.372 90.656,78.445 89.459,78.445Z" style="fill-rule:nonzero;"/>
        <path d="M52.467,78.445C52.458,78.445 52.45,78.445 52.441,78.444C52.376,78.435 52.32,78.397 52.288,78.34L48.796,72.083C48.742,71.985 48.777,71.86 48.875,71.805C48.976,71.75 49.099,71.785 49.155,71.884L52.51,77.898L56.805,73.396C56.844,73.355 56.897,73.332 56.953,73.332L56.954,73.332C57.01,73.333 57.064,73.356 57.102,73.397L60.769,77.294L64.013,71.674C64.07,71.575 64.196,71.542 64.293,71.599C64.39,71.655 64.424,71.781 64.368,71.879L60.986,77.738C60.953,77.794 60.896,77.831 60.832,77.839C60.77,77.846 60.704,77.823 60.66,77.776L56.953,73.835L52.615,78.382C52.576,78.422 52.523,78.445 52.467,78.445Z" style="fill-rule:nonzero;"/>
        <path d="M47.111,97.251C46.797,97.251 46.175,97.201 44.935,97.101C42.979,96.944 39.054,96.1 38.888,96.064C38.778,96.04 38.707,95.931 38.731,95.821C38.755,95.71 38.866,95.641 38.974,95.664C39.015,95.673 43.039,96.538 44.969,96.693C47.125,96.866 47.246,96.876 47.252,96.876C47.307,96.881 47.358,96.906 47.393,96.948C47.428,96.99 47.446,97.044 47.441,97.098C47.432,97.2 47.428,97.251 47.111,97.251Z" style="fill-rule:nonzero;"/>
        <path d="M47.645,91.889C47.625,91.889 47.604,91.886 47.584,91.879L42.864,90.418C42.756,90.384 42.696,90.27 42.729,90.162C42.762,90.053 42.879,89.994 42.985,90.027L47.706,91.488C47.814,91.522 47.874,91.636 47.841,91.744C47.814,91.832 47.732,91.889 47.645,91.889Z" style="fill-rule:nonzero;"/>
        <path d="M67.886,92.152L67.883,92.152C67.77,92.15 67.68,92.057 67.681,91.944L67.821,82.28C67.823,82.168 67.914,82.078 68.026,82.078L68.029,82.078C68.142,82.08 68.232,82.173 68.231,82.286L68.091,91.95C68.089,92.062 67.998,92.152 67.886,92.152Z" style="fill-rule:nonzero;"/>
        <path d="M47.697,90.936L47.194,98.171L49.836,98.045L50.276,91.125L47.697,90.936Z" style="fill:rgb(230,193,255);fill-rule:nonzero;"/>
        <path d="M89.608,69.42C89.608,69.42 88.2,72.179 88.763,72.601C89.326,73.023 91.297,69.955 91.297,69.955C91.297,69.955 92,68.688 91.071,68.294C90.142,67.899 89.608,69.42 89.608,69.42Z" style="fill:white;fill-rule:nonzero;"/>
        <path d="M89.607,69.42L89.612,69.42L89.607,69.42ZM90.768,68.433C90.697,68.433 90.628,68.449 90.559,68.479C90.167,68.652 89.878,69.266 89.8,69.488C89.798,69.496 89.794,69.504 89.79,69.513C89.094,70.876 88.664,72.27 88.886,72.438C89.157,72.507 90.198,71.288 91.125,69.844C91.213,69.683 91.434,69.157 91.311,68.802C91.261,68.656 91.156,68.552 90.992,68.482C90.915,68.449 90.84,68.433 90.768,68.433ZM88.889,72.846C88.775,72.846 88.693,72.804 88.64,72.765C88.011,72.292 88.97,70.22 89.42,69.338C89.464,69.215 89.795,68.369 90.393,68.104C90.638,67.996 90.894,67.996 91.152,68.105C91.426,68.221 91.61,68.411 91.699,68.67C91.905,69.27 91.494,70.022 91.476,70.054C91.188,70.504 89.743,72.7 88.978,72.837C88.946,72.843 88.917,72.846 88.889,72.846Z" style="fill-rule:nonzero;"/>
        <path d="M90.983,70.51C90.983,70.51 89.162,72.992 89.627,73.502C90.093,74.012 92.505,71.319 92.505,71.319C92.505,71.319 93.397,70.189 92.576,69.645C91.756,69.102 90.983,70.51 90.983,70.51Z" style="fill:white;fill-rule:nonzero;"/>
        <path d="M90.983,70.51L90.988,70.51L90.983,70.51ZM92.185,69.725C92.146,69.725 92.106,69.73 92.066,69.74C91.663,69.839 91.277,70.4 91.162,70.608C91.158,70.616 91.153,70.623 91.148,70.631C90.247,71.859 89.595,73.162 89.779,73.364C90.024,73.446 91.233,72.433 92.353,71.182C92.467,71.037 92.771,70.55 92.711,70.178C92.687,70.029 92.605,69.91 92.463,69.816C92.372,69.755 92.28,69.725 92.185,69.725ZM89.789,73.771C89.629,73.771 89.531,73.7 89.476,73.64C88.957,73.07 90.23,71.192 90.81,70.399C90.875,70.285 91.342,69.497 91.967,69.343C92.22,69.281 92.462,69.324 92.689,69.474C92.929,69.634 93.072,69.849 93.115,70.114C93.215,70.74 92.688,71.418 92.666,71.446C92.312,71.842 90.549,73.768 89.791,73.771L89.789,73.771Z" style="fill-rule:nonzero;"/>
        <path d="M92.218,71.654C92.218,71.654 90.313,73.706 90.623,74.223C90.933,74.74 93.365,72.565 93.365,72.565C93.365,72.565 94.285,71.638 93.683,71.05C93.082,70.461 92.218,71.654 92.218,71.654Z" style="fill:white;fill-rule:nonzero;"/>
        <path d="M92.218,71.654L92.223,71.654L92.218,71.654ZM93.304,71.091C93.294,71.091 93.284,71.092 93.274,71.093C92.929,71.122 92.515,71.595 92.384,71.775C92.379,71.781 92.374,71.787 92.369,71.793C91.43,72.805 90.681,73.912 90.799,74.118C91.023,74.156 92.139,73.387 93.229,72.412C93.35,72.289 93.686,71.871 93.682,71.523C93.682,71.396 93.634,71.289 93.54,71.196C93.467,71.125 93.392,71.091 93.304,71.091ZM90.777,74.506C90.755,74.506 90.734,74.505 90.714,74.501C90.599,74.484 90.504,74.423 90.447,74.328C90.098,73.745 91.451,72.18 92.06,71.524C92.148,71.405 92.667,70.733 93.239,70.685C93.454,70.665 93.662,70.742 93.826,70.903C94.001,71.074 94.09,71.282 94.092,71.52C94.097,72.111 93.535,72.685 93.511,72.709C93.024,73.146 91.448,74.506 90.777,74.506Z" style="fill-rule:nonzero;"/>
        <path d="M93.089,72.829C93.089,72.829 91.204,74.324 91.379,74.802C91.554,75.281 93.892,73.748 93.892,73.748C93.892,73.748 94.792,73.079 94.389,72.504C93.985,71.928 93.089,72.829 93.089,72.829Z" style="fill:white;fill-rule:nonzero;"/>
        <path d="M93.089,72.829L93.094,72.829L93.089,72.829ZM94.027,72.516C93.782,72.516 93.415,72.793 93.234,72.973C93.228,72.979 93.223,72.984 93.216,72.989C92.363,73.666 91.632,74.429 91.575,74.693C91.858,74.688 92.827,74.201 93.78,73.577C93.779,73.577 94.5,73.02 94.221,72.621C94.175,72.555 94.123,72.523 94.053,72.517C94.045,72.517 94.036,72.516 94.027,72.516ZM91.572,74.736L91.577,74.736L91.572,74.736ZM91.542,75.096C91.489,75.096 91.442,75.09 91.401,75.077C91.298,75.043 91.222,74.97 91.187,74.873C90.991,74.338 92.205,73.27 92.953,72.676C93.049,72.581 93.614,72.077 94.088,72.109C94.279,72.126 94.44,72.222 94.556,72.386C94.965,72.97 94.408,73.62 94.014,73.912C93.439,74.289 92.139,75.096 91.542,75.096Z" style="fill-rule:nonzero;"/>
        <path d="M60.7,70.935C60.184,71.469 58.033,73.649 56.749,73.589C55.471,73.523 53.881,72.623 52.465,70.937C52.525,70.667 52.543,70.218 52.549,69.738C54.775,70.463 57.583,70.721 59.677,70.08C59.905,70.007 60.121,69.93 60.324,69.852C60.493,70.327 60.507,70.383 60.7,70.935Z" style="fill:white;fill-rule:nonzero;"/>
        <path d="M52.685,70.88C53.972,72.385 55.49,73.319 56.759,73.385C56.773,73.385 56.787,73.386 56.801,73.386C57.567,73.386 58.926,72.458 60.465,70.882L60.318,70.454C60.282,70.348 60.248,70.251 60.201,70.116C60.053,70.171 59.899,70.224 59.739,70.275C57.836,70.858 55.181,70.756 52.749,70.015C52.739,70.402 52.719,70.679 52.685,70.88ZM56.8,73.795C56.779,73.795 56.759,73.795 56.739,73.794C55.337,73.721 53.681,72.703 52.308,71.069C52.268,71.02 52.252,70.955 52.265,70.893C52.328,70.614 52.34,70.099 52.344,69.735C52.345,69.67 52.377,69.609 52.43,69.571C52.483,69.533 52.55,69.522 52.612,69.543C55.038,70.334 57.722,70.464 59.617,69.883C59.839,69.814 60.051,69.737 60.252,69.66C60.303,69.64 60.361,69.643 60.41,69.666C60.461,69.689 60.499,69.731 60.517,69.783C60.607,70.035 60.653,70.17 60.705,70.322L60.894,70.867C60.92,70.94 60.901,71.021 60.848,71.077C59.858,72.099 58.033,73.795 56.8,73.795Z" style="fill-rule:nonzero;"/>
        <path d="M101.47,66.174C101.47,68.815 100.708,70.651 98.97,70.651C97.232,70.651 96.677,69.605 96.677,66.36C96.677,63.787 97.233,62.069 98.97,62.069C100.708,62.069 101.47,63.675 101.47,66.174Z" style="fill:rgb(230,193,255);fill-rule:nonzero;"/>
    </g>
</svg>
