<svg width="40" height="40" viewBox="0 0 40 40" fill="none" xmlns="http://www.w3.org/2000/svg">
<mask id="mask0_5_572" style="mask-type:alpha" maskUnits="userSpaceOnUse" x="0" y="0" width="40" height="40">
<rect width="40" height="40" fill="#D9D9D9"/>
</mask>
<g mask="url(#mask0_5_572)">
<path d="M29.2083 33.3542C29.0139 33.2847 28.8333 33.1667 28.6666 33L24 28.3333C23.6389 27.9722 23.3819 27.5833 23.2291 27.1667C23.0764 26.75 23 26.3333 23 25.9167C23 25.0278 23.3194 24.2361 23.9583 23.5417C24.5972 22.8472 25.4166 22.5 26.4166 22.5C27.1944 22.5 27.8055 22.6805 28.25 23.0417C28.6944 23.4028 29.2222 23.8889 29.8333 24.5C30.3889 23.9444 30.8958 23.4722 31.3541 23.0833C31.8125 22.6944 32.4444 22.5 33.25 22.5C34.2778 22.5 35.1041 22.8542 35.7291 23.5625C36.3541 24.2708 36.6666 25.0694 36.6666 25.9583C36.6666 26.375 36.5833 26.7917 36.4166 27.2083C36.25 27.625 36 28 35.6666 28.3333L31 33C30.8333 33.1667 30.6528 33.2847 30.4583 33.3542C30.2639 33.4236 30.0555 33.4583 29.8333 33.4583C29.6111 33.4583 29.4028 33.4236 29.2083 33.3542ZM6.66665 33.3333C5.74998 33.3333 4.96526 33.0069 4.31248 32.3542C3.6597 31.7014 3.33331 30.9167 3.33331 30V9.99999C3.33331 9.08332 3.6597 8.2986 4.31248 7.64582C4.96526 6.99305 5.74998 6.66666 6.66665 6.66666H33.3333C34.25 6.66666 35.0347 6.99305 35.6875 7.64582C36.3403 8.2986 36.6666 9.08332 36.6666 9.99999V16.375C36.6666 16.8472 36.5069 17.243 36.1875 17.5625C35.868 17.8819 35.4722 18.0417 35 18.0417C34.5278 18.0417 34.1319 17.8819 33.8125 17.5625C33.493 17.243 33.3333 16.8472 33.3333 16.375V13.3333H6.66665V20H19.1666C19.6389 20 19.9861 20.2222 20.2083 20.6667C20.4305 21.1111 20.3889 21.5417 20.0833 21.9583C19.4722 22.875 19 23.875 18.6666 24.9583C18.3333 26.0417 18.1666 27.1667 18.1666 28.3333C18.1666 28.8611 18.2014 29.3819 18.2708 29.8958C18.3403 30.4097 18.4444 30.9028 18.5833 31.375C18.7222 31.8472 18.6458 32.2917 18.3541 32.7083C18.0625 33.125 17.6805 33.3333 17.2083 33.3333H6.66665Z" fill="white"/>
</g>
</svg>
